<?xml version="1.0" encoding="utf-8"?>
<!-- Generator: Adobe Illustrator 23.0.3, SVG Export Plug-In . SVG Version: 6.00 Build 0)  -->
<svg version="1.1" id="Layer_1" xmlns="http://www.w3.org/2000/svg" xmlns:xlink="http://www.w3.org/1999/xlink" x="0px" y="0px"
	 viewBox="0 0 547.1 205" style="enable-background:new 0 0 547.1 205;" xml:space="preserve">
<style type="text/css">
	.st0{fill:#FFFFFF;}
	.st1{fill:none;stroke:#FFFFFF;stroke-width:2;stroke-linecap:round;stroke-miterlimit:10;}
	.st2{fill:none;stroke:#FFFFFF;stroke-width:2;stroke-linecap:round;stroke-linejoin:round;}
</style>
<g>
	<title>HSM_logo_v02.1</title>
	<path d="M203.7,158.8h-30.6V44.1c0-19.2,9-28.8,27.1-28.8h51.6c10.6,0,18.2,3.5,22.7,10.5c4.2-7,11.8-10.5,22.7-10.5h50.4
		c18.1,0,27.1,9.6,27.1,28.8v94.7h-30.6V41.5c0-1.1-0.4-2.2-1.2-3c-0.7-0.9-1.8-1.3-3-1.3h-46.1c-1.1,0-2.2,0.5-3,1.3
		c-0.8,0.8-1.2,1.9-1.2,3v57.4h-30.6V41.5c0-1.1-0.4-2.2-1.2-3c-0.8-0.9-1.9-1.4-3-1.3h-46.5c-1.3,0-2.6,0.4-3.6,1.3
		c-0.8,0.8-1.2,1.9-1.2,3V158.8z"/>
	<ellipse transform="matrix(0.9295 -0.3689 0.3689 0.9295 -21.6022 101.8829)" cx="255.6" cy="107.4" rx="35.6" ry="23.6"/>
	<ellipse transform="matrix(0.9295 -0.3689 0.3689 0.9295 -49.8109 74.3607)" cx="169.5" cy="167.4" rx="35.6" ry="23.6"/>
	<ellipse transform="matrix(0.9295 -0.3689 0.3689 0.9295 -30.3766 136.0208)" cx="340.5" cy="147.4" rx="35.6" ry="23.6"/>
	<circle class="st0" cx="156.8" cy="163.1" r="3.6"/>
	<path class="st0" d="M169.5,180.4c-4.5,0-8.2-3.7-8.2-8.2c-0.1-0.8,0.5-1.4,1.2-1.5c0.8-0.1,1.4,0.5,1.5,1.2c0,0.1,0,0.2,0,0.2
		c0.1,3,2.7,5.4,5.7,5.2c2.8-0.1,5.1-2.4,5.2-5.2c-0.1-0.8,0.5-1.4,1.2-1.5c0.8-0.1,1.4,0.5,1.5,1.2c0,0.1,0,0.2,0,0.2
		C177.7,176.7,174.1,180.4,169.5,180.4z"/>
	<path class="st1" d="M246.5,104.1c0,2-1.6,2.6-3.6,2.6s-3.6-0.6-3.6-2.6"/>
	<path class="st1" d="M272,104.1c0,2-1.6,2.6-3.6,2.6c-2,0-3.6-0.6-3.6-2.6"/>
	<ellipse class="st0" cx="255.6" cy="116.5" rx="5.2" ry="3.9"/>
	<circle class="st0" cx="327.7" cy="143.1" r="3.6"/>
	<circle class="st0" cx="353.2" cy="143.1" r="3.6"/>
	<path class="st0" d="M347.3,150.8c0.8,0,1.4,0.6,1.3,1.4c0,0,0,0,0,0c0,4.5-3.7,8.2-8.2,8.2c-4.5,0-8.2-3.7-8.2-8.2
		c0-0.8,0.6-1.4,1.4-1.4"/>
	<path d="M47.2,126.9h-8.7v-3.3c0-0.3-0.1-0.7-0.4-0.9c-0.2-0.3-0.6-0.4-0.9-0.4h-3.6c-0.3,0-0.7,0.1-0.9,0.4
		c-0.2,0.2-0.4,0.6-0.4,0.9v7.5c0,0.3,0.1,0.7,0.4,0.9c0.2,0.3,0.6,0.4,0.9,0.4h5.9c5.4,0.1,8.1,3,8.1,8.7v9.1
		c0,5.8-2.7,8.6-8.1,8.6h-7.8c-5.4,0-8.1-2.9-8.1-8.7v-4.4h8.7v4.7c0,0.3,0.1,0.7,0.4,0.9c0.2,0.3,0.6,0.4,0.9,0.4h4
		c0.3,0,0.7-0.1,0.9-0.4c0.2-0.2,0.4-0.6,0.4-0.9v-8.3c0-0.3-0.1-0.7-0.4-0.9c-0.2-0.3-0.5-0.4-0.9-0.4h-5.9c-5.4,0-8.1-2.9-8.1-8.6
		v-8.5c0-5.8,2.7-8.7,8.1-8.7h7.3c5.4,0,8.1,2.9,8.1,8.7V126.9z"/>
	<path d="M77.7,123.8v26.4c0,5.8-2.7,8.6-8.1,8.6h-8.7c-5.4,0-8.1-2.9-8.1-8.6v-26.4c0-5.8,2.7-8.7,8.1-8.7h8.7
		C75,115.1,77.7,118,77.7,123.8z M68.5,151.3v-28.6c0-0.3-0.1-0.7-0.4-0.9c-0.2-0.3-0.5-0.4-0.9-0.4h-4.1c-0.3,0-0.7,0.1-0.9,0.4
		c-0.2,0.2-0.4,0.6-0.4,0.9v28.6c0,0.3,0.1,0.7,0.4,0.9c0.2,0.3,0.6,0.4,0.9,0.4h4.1c0.3,0,0.7-0.1,0.9-0.4
		C68.4,151.9,68.5,151.6,68.5,151.3z"/>
	<path d="M107.1,158.2h-9.2V123c0-0.3-0.1-0.7-0.4-0.9c-0.2-0.3-0.5-0.4-0.9-0.4h-3.5c-0.3,0-0.7,0.1-0.9,0.4
		c-0.2,0.2-0.4,0.6-0.4,0.9v35.2h-9.2v-34.4c0-5.8,2.7-8.7,8.1-8.7H99c5.4,0,8.1,2.9,8.1,8.7L107.1,158.2z"/>
	<path d="M124.6,141.3v-6.8h12.1v15.6c0,5.8-2.7,8.6-8.1,8.6h-8.2c-5.4,0-8.1-2.9-8.1-8.6v-26.4c0-5.8,2.7-8.7,8.1-8.7h8.3
		c5.4,0,8.1,2.9,8.1,8.7v4H128v-5.1c0-0.3-0.1-0.7-0.4-0.9c-0.2-0.3-0.5-0.4-0.9-0.4h-4.1c-0.3,0-0.7,0.1-0.9,0.4
		c-0.2,0.2-0.4,0.6-0.4,0.9v28.6c0,0.3,0.1,0.7,0.4,0.9c0.2,0.3,0.6,0.4,0.9,0.4h4.1c0.3,0,0.7-0.1,0.9-0.4c0.2-0.2,0.4-0.6,0.4-0.9
		v-9.9L124.6,141.3z"/>
	<path d="M42,66.8v33.3H23.7V15.3H42v35.5h14.5V15.3h18.4v84.8H56.6V66.8H42z"/>
	<path d="M118.3,15.3h18.3v68.8c0,11.5-5.4,17.3-16.3,17.3h-16.2c-10.8,0-16.3-5.8-16.3-17.3V15.3h18.4v70.4c0,0.7,0.3,1.3,0.7,1.8
		c0.5,0.5,1.1,0.8,1.8,0.8h7.1c0.7,0,1.4-0.2,1.8-0.8c0.5-0.5,0.7-1.1,0.7-1.8L118.3,15.3z"/>
	<path d="M428,115.8c5.4,0,8.1,2.9,8.1,8.7v34.4H427v-14.2h-6.6v14.2h-9.2v-34.4c0-5.8,2.7-8.7,8.1-8.7H428z M420.3,137.5h6.6v-14.2
		c0-0.3-0.1-0.7-0.4-0.9c-0.2-0.3-0.5-0.4-0.9-0.4h-4.1c-0.3,0-0.7,0.1-0.9,0.4c-0.2,0.2-0.4,0.6-0.4,0.9V137.5z"/>
	<path d="M469.4,116.4l-7.2,19.5l8.6,22.9h-9.4l-6.3-16.8h-3v16.8H443v-42.4h9.2v17.8h2.2l6.6-17.8H469.4z"/>
	<path d="M483.8,151.3H494v7.6h-19.3v-42.4H494v7.5h-10.2v10h9.5v7.2h-9.5V151.3z"/>
	<path d="M508.1,141.5v17.4H499v-42.4h16.3c5.4,0,8.1,2.9,8.1,8.7v4.9c0,3.5-1.2,5.7-3.7,6.7c2.2,0.8,3.3,2.6,3.3,5.4v16.8h-9.2
		v-16.1c0-0.9-0.4-1.3-1.2-1.3H508.1z M508.1,122.6V135h4.9c0.3,0,0.7-0.1,0.9-0.4c0.2-0.2,0.4-0.6,0.4-0.9V124
		c0-0.3-0.1-0.7-0.4-0.9c-0.2-0.3-0.5-0.4-0.9-0.4L508.1,122.6z"/>
	<path d="M444.9,15.3c10.8,0,16.3,5.8,16.3,17.3v68.8h-18.4V73h-13.2v28.4h-18.4V32.6c0-11.5,5.4-17.3,16.3-17.3H444.9z M429.5,58.8
		h13.2V30.3c0-0.7-0.3-1.3-0.7-1.8c-0.4-0.5-1.1-0.8-1.8-0.8H432c-0.7,0-1.3,0.3-1.8,0.8c-0.5,0.5-0.7,1.2-0.7,1.8L429.5,58.8z"/>
	<path d="M523.4,101.4h-18.3V31c0-0.7-0.3-1.3-0.7-1.8c-0.4-0.5-1.1-0.8-1.8-0.8h-7.1c-0.7,0-1.3,0.3-1.8,0.8
		c-0.5,0.5-0.7,1.2-0.7,1.8v70.4h-18.3V32.6c0-11.5,5.4-17.3,16.2-17.3h16.3c10.8,0,16.3,5.8,16.3,17.3V101.4z"/>
	<circle cx="292.3" cy="120.6" r="7.5"/>
	<path d="M293.5,115.5l15.7-28.4c0.3-0.5,0.8-0.6,1.3-0.3c0.4,0.2,0.6,0.7,0.4,1.1l-12,30.2c-0.6,1.5-2.4,2.3-3.9,1.7
		s-2.3-2.4-1.7-3.9l0,0C293.4,115.7,293.4,115.6,293.5,115.5z"/>
	<polyline class="st2" points="184.7,160.3 179.3,163.1 184.7,165.9 	"/>
</g>
</svg>
