<?xml version="1.0" encoding="utf-8"?>
<!-- Generator: Adobe Illustrator 23.0.3, SVG Export Plug-In . SVG Version: 6.00 Build 0)  -->
<svg version="1.1" id="Calque_1" xmlns="http://www.w3.org/2000/svg" xmlns:xlink="http://www.w3.org/1999/xlink" x="0px" y="0px"
	 viewBox="0 0 89.3 69.5" style="enable-background:new 0 0 89.3 69.5;" xml:space="preserve">
<title>Bongos</title>
<g>
	<g>
		<path d="M46.3,46.6h-4.5c-0.2,0.2-0.3,0.3-0.3,0.5c-0.5,1.6-0.8,3.1-1,4.7c-0.1,1.6-0.5,3.2-1.1,4.7c-0.6,1.4-1.2,2.7-2,3.9
			c-1.4,2.1-3.4,3.6-5.8,4.5c-2.3,0.9-4.7,1.5-7.2,1.8c-1.1,0.1-2.3,0.1-3.4,0c-3-0.3-6-1-8.8-2.3c-0.8-0.4-1.5-0.8-2.2-1.3
			c-2.3-2.1-4.4-4.4-5-7.6c-0.4-2.1-1-4.1-1.4-6.2C3.4,47.5,3.3,45.7,3,44s-0.5-3.2-0.7-4.8c0-0.2-0.1-0.4-0.2-0.6
			c-0.2-1.8-0.3-3.6-0.5-5.5c0-0.5-0.1-1-0.2-1.5c-0.1-0.8-0.2-1.7-0.3-2.5s-0.2-1.9-0.3-2.8c-0.1-0.7-0.1-1.4-0.2-2.1
			c0-0.6,0-1.3-0.2-1.9c-0.8-3-0.4-6.1-0.3-9.1c0.1-1.7,0.8-3.3,2-4.6c1.9-2.2,4.2-4,6.7-5.5c2.4-1.4,5.2-1.9,7.7-2.8
			c0.6-0.1,1.1-0.1,1.7-0.1C20.5,0.3,22.7,0.2,25,0c2.3-0.1,4.7,0.1,7,0.5c1.2,0.2,2.3,0.5,3.5,0.8c3.3,0.8,6.3,2.4,8.8,4.7
			c1.7,1.5,2.8,3.6,3.3,5.8c0.3,0.9,0.3,1.8,0,2.7c-0.4,1.5-0.7,3-0.9,4.6c-0.2,1.2-0.5,2.5-0.9,3.7c-0.4,1.7-0.6,3.5-1,5.2
			c-0.4,2-0.9,4-1.3,6c-0.1,0.3-0.2,0.7-0.2,1c-0.1,0.4,0.3,0.8,0.7,0.9c0,0,0,0,0,0c0.3,0,0.6,0,0.8,0c1.7-0.1,2.1-0.5,2.1-2.2
			c0-1.5,0.1-3,0.3-4.4c0.3-1.4,0.1-3,0.4-4.4c0.5-2.3,0.7-4.8,2.9-6.4c0.4-0.3,0.7-0.7,1-1.1c1-1.2,2.4-2,3.8-2.6
			c0.5-0.2,1.1-0.4,1.6-0.7c0.9-0.6,1.9-1,3-1c0.3,0,0.7-0.1,1-0.2c1.3-0.5,2.7-0.7,4.2-0.7c1-0.1,2.1-0.3,3.1-0.4
			c3-0.1,6.1,0.2,9,1c3.6,0.8,6.9,2.7,9.4,5.4c0.2,0.3,0.5,0.5,0.7,0.8c1.3,1.2,2,3,1.9,4.8c0,0.9,0,1.8-0.1,2.8
			c0,0.4-0.1,0.8-0.3,1.2c-0.3,0.8-0.6,1.6-0.8,2.4c-0.7,2.1-1.4,4.3-2.1,6.4c-0.3,0.8-0.4,1.6-0.7,2.5c0,0.3-0.1,0.6-0.2,0.8
			c-1.5,3.7-2.1,7.6-3.2,11.4c-0.7,2.4-1.1,4.8-1.9,7.1c-0.4,1.1-1,2.1-1.3,3.1c-0.4,1.3-1,2.5-1.7,3.6c-0.9,1.5-2.3,2.6-3.9,3.1
			c-1.6,0.5-3.3,0.9-4.9,1.1c-2.9,0.4-5.8,0.4-8.7-0.1c-2.3-0.3-4.6-1-6.6-2.2c-1.3-0.7-2.5-1.5-3.6-2.5c-1.9-1.8-3.1-4.1-3.6-6.6
			c-0.3-1.4-0.2-2.8,0.1-4.2c0.3-1.8,0.5-3.6,0.7-5.4C46.5,47.7,46.4,47.1,46.3,46.6z M7.8,36.1c-0.4,0.3-0.7,0.6-1.1,1
			c-0.4,0.5-0.7,1.1-1.1,1.6c-0.6,0.7-0.9,1.6-0.8,2.5c0.1,0.6,0.1,1.3,0.2,1.9c0.4,1.6,0.7,3.3,0.8,5c0,0.1,0.2,0.2,0.3,0.3
			c0.5-0.2,0.4-0.7,0.5-1s0.4-0.8,1-0.6c0.2,0.2,0.4,0.5,0.6,0.8c1,1.5,2,3.1,3,4.6c0.3,0.5,0.6,1.2,1.4,1.3
			c0.8-0.9,1.5-1.8,2.2-2.8s1.4-2.1,2.2-3.3c0.7,1,1.4,2.1,2,3.2c0.6,1.4,1.9,2.5,2.8,4c1.9-2.1,2.9-4.4,4.2-6.7
			c0.5-0.1,0.8,0.2,1,0.5c1,1.2,2,2.4,3,3.6c0.3,0.3,0.6,0.5,1,0.7c1.4-0.9,1.8-2.4,2.6-3.7s0.9-2.9,1.7-4.3
			c1.2,0.9,1.5,2.4,2.9,2.8c0.6-0.3,0.7-0.8,0.8-1.3c0.3-1.5,0.5-3,0.9-4.5c0.2-0.7,0-1.4-0.5-1.9c-0.7-0.7-1.3-1.5-1.9-2.3
			c-0.2-0.2-0.4-0.4-0.6-0.6c-0.4-0.4-1.1-0.4-1.5,0c-0.5,0.4-0.9,0.9-1.2,1.5c-0.8,1.5-1.6,3-2.4,4.5c-0.2,0.3-0.3,0.5-0.5,0.7
			c-0.2-0.2-0.4-0.5-0.6-0.8c-0.7-1.1-1.4-2.3-2.1-3.4c-0.6-0.9-1.2-1-1.9-0.2c-1.3,1.4-2.6,2.8-3.9,4.2c-0.3,0.3-0.3,0.8-1,0.8
			c-0.5-0.6-0.9-1.3-1.4-2c-0.5-1-1.2-1.9-2.1-2.7c-1.1-1.1-1.1-1-2.4-0.1c-0.9,0.6-1.6,1.4-2.1,2.4c-0.3,0.5-0.5,1.2-1.2,1.4
			c-0.7-1.2-1.4-2.4-2.3-3.5C9.6,38.5,9.3,36.9,7.8,36.1z M22.1,27c1.4,0.1,2.8,0,4.2-0.3c0.5-0.1,1-0.2,1.5-0.1
			c1.5,0,3-0.2,4.4-0.7c1.3-0.4,2.5-0.9,3.8-1.3s2.1-1.6,3.4-1.7c0.2,0,0.3-0.2,0.5-0.4c2.5-1.8,4.2-4.5,5-7.4
			c0.5-1.6,0.3-3.4-0.5-4.9c-1.7-2.8-4.3-4.9-7.3-6.1c-2.7-1-5.5-1.4-8.3-1.5c-1.5-0.1-3.1-0.4-4.6,0.4c-0.1,0-0.3,0-0.4-0.1
			c-0.5-0.4-1-0.5-1.6-0.3C21,2.7,19.9,2.3,18.8,3c-0.3,0.2-0.8,0-1.3,0.1c-0.6,0-1.1,0.1-1.7,0.2c-2,0.5-4,1.3-5.9,2.2
			C8.7,6.2,7.6,7,6.4,7.8c-1.7,2.3-3.2,4.5-3.2,7.6C3,18.9,4.8,22.3,8,23.9c1.6,0.8,3.4,1.5,5.1,2C16,26.7,19.1,27.1,22.1,27z
			 M52.5,57.6c2-0.9,3.8-2.3,5.3-3.9c0.4,0.4,0.7,0.7,1,1c1.3,1.5,2.5,3,3.8,4.5c0.2,0.2,0.5,0.4,0.8,0.5c0.9-0.7,1.8-1.5,2.6-2.3
			c0.8-0.8,1.5-1.9,2.3-2.9l0.7,0.7c0.8,0.8,1.7,1.7,2.5,2.5c0.4,0.3,0.8,0.4,1.2,0.6c0.5-0.6,1-1,1.3-1.5c0.8-1.1,1.9-2.1,2.3-3.5
			c0-0.2,0.4-0.3,0.7-0.5c0.4,0.7,0.3,1.6,1.3,1.7c1.1-1.9,1.4-4,2.1-6c-0.5-0.9-1-1.8-1.5-2.6c-0.2-0.3-0.4-0.6-0.8-0.5
			c-0.8,1-1.6,2-2.3,3s-1.6,2.1-2.5,3.2c-1.6-1.7-2.4-3.8-4.5-4.9c-1.6,1.3-2.9,2.9-3.7,4.7c-0.2,0.4-0.3,1-1,1
			c-0.1-0.1-0.4-0.2-0.4-0.4c-0.6-1.2-1.2-2.4-1.7-3.6c-0.2-0.7-0.5-1.4-0.8-2c-0.4-0.9-1.1-1-1.9-0.4c-0.2,0.2-0.5,0.3-0.7,0.5
			L56,49c-0.3,0.2-0.5,0.5-0.9,0.3c-0.6-2-1.1-4-1.7-6c-0.1-0.5-0.5-0.8-1-0.7c-0.1,0-0.2,0.1-0.3,0.1c-0.4,0.2-0.9,0.5-1.3,0.7
			c-0.4,0.1-0.9,0.1-1.3,0c0,0.5,0.4,0.9-0.1,1.2c-0.4,0.3-0.6,0.8-0.6,1.3c0,1.6,0,3.3,0,4.9c0,0.1,0.1,0.2,0.2,0.4h1.1L52.5,57.6z
			 M69,15L69,15c-1.3,0-2.6,0-3.8,0c-0.7,0.1-1.4,0.2-2.1,0.3c-2.6,0.5-5,1.4-7.3,2.7c-2.6,1.3-4.6,3.3-4.6,6.5c0,0.3,0,0.7-0.1,1
			c-0.4,0.9-0.2,2,0.5,2.8c1,1.5,2.4,2.8,4,3.7c3.8,2,7.7,3.5,12.1,3.4c1.1,0,2.3,0,3.4,0c2.5,0,4.9-0.5,7.2-1.4
			c2-0.8,3.8-1.9,5.4-3.3c2.2-1.5,3.3-4.2,2.9-6.9c-0.1-1-0.5-1.9-1.2-2.7c-1.5-1.9-3.4-3.4-5.7-4.4c-2.6-1.2-5.5-1.8-8.4-1.8
			C70.5,15,69.8,15,69,15z M43.7,44.1c-0.4,0-0.8,0-1.2,0c-0.1,0-0.3,0.4-0.2,0.5C42.5,45,43.2,44.9,43.7,44.1z M73.1,63.8
			c-0.1-0.2-0.2-0.4-0.3-0.4c-0.3,0-0.5,0.1-0.7,0.2C72,63.7,72,63.8,72.1,64c0.1,0.1,0.3,0.3,0.4,0.2C72.7,64.1,73,64,73.1,63.8z
			 M14.8,35.5l-1.3-0.5c-0.1,0.2-0.2,0.4-0.2,0.5c0.2,0.2,0.4,0.3,0.6,0.4C14,35.8,14.2,35.7,14.8,35.5z M53.8,63.7
			c-0.2,0.3-0.4,0.5-0.3,0.6c0.2,0.2,0.4,0.4,0.6,0.5c0.1-0.1,0.3-0.3,0.3-0.4C54.1,64.1,54,63.9,53.8,63.7L53.8,63.7z M13.4,30.2
			c0.2-0.1,0.4-0.1,0.4-0.1c0-0.2-0.1-0.4-0.1-0.5l-0.5,0.2L13.4,30.2z M64,40.8l0.4-0.4c-0.2-0.1-0.3-0.3-0.5-0.3
			c-0.4-0.1-0.7,0.2-0.5,0.4C63.6,40.7,63.8,40.8,64,40.8z M10.2,33.4L10,33.7l0.3,0.3l0.2-0.3L10.2,33.4z M49.5,31.3l0.4-0.2
			c-0.1-0.1-0.2-0.3-0.3-0.4c0,0-0.3,0.1-0.3,0.1C49.4,31,49.4,31.1,49.5,31.3L49.5,31.3z M36.8,29c-0.2-0.1-0.3-0.1-0.5-0.1
			c-0.1,0-0.1,0.2-0.2,0.3c0.2,0.1,0.3,0.1,0.5,0.2C36.7,29.2,36.8,29.1,36.8,29z M10.6,59.3c0.1-0.2,0.2-0.3,0.2-0.4
			c-0.1-0.1-0.2-0.2-0.3-0.2c-0.1,0-0.2,0.2-0.3,0.2L10.6,59.3z M28.1,63.8L28,63.3c-0.2,0.1-0.5,0.2-0.7,0.3c0,0,0.1,0.3,0.1,0.3
			C27.7,63.9,27.9,63.8,28.1,63.8z M66.2,61.6L66,61.1c-0.2,0.1-0.3,0.1-0.5,0.2c0,0,0.1,0.3,0.2,0.3C65.8,61.7,66,61.6,66.2,61.6z
			 M24.7,62.8c0.1,0,0.2,0.2,0.3,0.1c0.1,0,0.2-0.2,0.1-0.3c0-0.1-0.2-0.2-0.3-0.1C24.8,62.5,24.8,62.7,24.7,62.8z M13,39.7
			c-0.1-0.1-0.3-0.3-0.5-0.3c-0.1,0-0.3,0.1-0.3,0.2c0,0.2,0.1,0.3,0.2,0.5L13,39.7z M8,27.5l-0.2-0.5c-0.2,0.1-0.3,0.1-0.5,0.2
			c0,0,0.1,0.3,0.2,0.3C7.7,27.6,7.8,27.6,8,27.5z M63.6,64.8l-0.1-0.3c-0.1,0.1-0.3,0.1-0.3,0.2s0.1,0.2,0.1,0.3L63.6,64.8z
			 M68.8,62.8c-0.1,0-0.2-0.1-0.3-0.1c0,0-0.1,0.1-0.1,0.1c0.1,0.1,0.1,0.2,0.2,0.2L68.8,62.8z M46.6,43.3c0,0-0.1,0-0.2,0
			s0,0.1,0,0.2h0.3L46.6,43.3z M77.6,57.2l0.3-0.1c-0.1-0.1-0.1-0.3-0.2-0.3s-0.2,0.1-0.3,0.1L77.6,57.2z M55.2,40.4
			c0,0-0.1-0.2-0.1-0.1c-0.1,0-0.2,0.1-0.3,0.2c0.1,0.1,0.2,0.1,0.3,0.1C55.1,40.6,55.2,40.5,55.2,40.4z M70.3,39.5
			c0,0,0-0.1-0.1-0.1s-0.1,0-0.2,0l0.1,0.2L70.3,39.5z M66.4,38.5l-0.1-0.2l-0.1,0.2H66.4z M56,36.9l-0.2-0.1c0,0,0,0.1,0,0.2
			s0.1,0,0.2,0.1L56,36.9z M32.9,31.2c0-0.1,0-0.1,0-0.2s-0.1,0-0.2-0.1v0.3L32.9,31.2z M71,58.7l-0.3-0.1v0.1
			C70.8,58.7,70.9,58.7,71,58.7z M64.4,67.2c-0.1-0.1-0.2-0.1-0.3-0.2c0,0-0.1,0.1-0.1,0.1s0.1,0.2,0.1,0.2
			C64.2,67.2,64.3,67.2,64.4,67.2L64.4,67.2z M74.7,46.3v0.2l0.2-0.1L74.7,46.3z M36.7,47.3l-0.1,0.1h0.1L36.7,47.3z"/>
		<path d="M22.2,24c-2.4,0-4.8-0.3-7.2-0.9c-1.6-0.4-3.3-0.9-4.8-1.6c-0.8-0.4-1.5-1-2.1-1.7c-0.5-0.6-1-1.2-1.4-1.9
			c-1.5-2.3-1-5.3,1.1-7.1c2-1.9,4.5-3.2,7.2-4c2.2-0.7,4.5-1.1,6.8-1.2c1.7,0,3.4-0.5,5.1-0.4c0.7,0.1,1.4,0.2,2.1,0.3
			c0.4,0.1,0.8,0.2,1.3,0.2c3.2,0.2,6.2,1,9.1,2.3c1.9,0.8,3.3,2.4,3.8,4.4c0.1,0.4,0.1,0.8,0,1.2c-0.7,2.1-2,3.9-3.8,5.2
			c-1.5,1-3.2,1.9-4.8,2.6c-1.8,0.7-3.7,1.3-5.6,1.7C26.7,23.6,24.5,23.9,22.2,24z M28,8.7c-0.5-0.7-0.9-0.8-1.6-0.1L28,8.7z
			 M14.2,13.5c-0.3,0.3-0.5,0.4-0.5,0.6s0.1,0.3,0.2,0.5c0.1-0.1,0.4-0.2,0.4-0.3C14.3,14.1,14.3,13.8,14.2,13.5z M23.7,18.9
			c-0.3-0.2-0.4-0.4-0.5-0.4c-0.2,0-0.3,0.1-0.4,0.3c0,0.1,0.2,0.5,0.2,0.4C23.2,19.1,23.5,19,23.7,18.9z M30,16.4
			c-0.1-0.2-0.1-0.4-0.2-0.4c-0.2,0-0.3,0.1-0.5,0.2c0.1,0.1,0.1,0.3,0.2,0.3C29.7,16.5,29.8,16.4,30,16.4z M12.4,11.4l0.2,0.2
			c0,0,0.1-0.1,0.1-0.1c-0.1-0.1-0.1-0.2-0.2-0.2L12.4,11.4z M25.7,19.6c-0.1,0-0.2-0.1-0.3-0.1c0,0,0,0.1-0.1,0.1
			c0.1,0,0.2,0.1,0.3,0.1C25.6,19.8,25.6,19.7,25.7,19.6L25.7,19.6z M14.4,10.3l0.1-0.1l-0.2-0.1L14.4,10.3z M25.5,14.9l-0.1-0.1
			v0.2L25.5,14.9z"/>
		<path d="M66.3,32.8c-2.9-0.2-5.7-0.9-8.4-2c-1.7-0.7-3.2-1.8-4.2-3.4c-0.7-1.1-1-2.4-0.6-3.6c0.3-1.3,0.9-2.4,1.9-3.2
			c1.2-1.1,2.6-1.9,4.1-2.5c3.1-1,6.4-1.6,9.8-1.6c3.4,0.1,6.8,0.7,10.1,1.6c1.6,0.5,3,1.6,4.1,2.9c0.3,0.4,0.6,0.8,0.9,1.2
			c1.3,1.7,1.1,4.1-0.5,5.5c-1.4,1.3-3.1,2.3-4.9,2.8c-2.8,0.9-5.6,1.2-8.4,1.9c-0.6,0.2-1.3-0.1-1.6-0.7c-0.1,0-0.2,0-0.2,0.1
			c-0.4,0.8-1.2,0.6-1.8,0.8l-0.1-0.4L66.3,32.8z M78.6,29.4c1-0.5,1-0.5,1-1C79.1,28.5,78.6,28.5,78.6,29.4L78.6,29.4z M79.9,24.5
			c0.2-0.1,0.4-0.2,0.5-0.4s0-0.6-0.3-0.5c-0.2,0.1-0.3,0.2-0.4,0.4C79.7,24,79.8,24.2,79.9,24.5L79.9,24.5z M77.7,29.7
			c0-0.1-0.1-0.3-0.2-0.3s-0.2,0.1-0.3,0.1l0.2,0.4L77.7,29.7z M62.2,24.6H62c0,0.1,0,0.2,0,0.3h0.2C62.2,24.8,62.2,24.7,62.2,24.6z
			 M60.3,30.2c0-0.1-0.1-0.3-0.2-0.3S60,30,59.8,30s0.1,0.3,0.1,0.3S60.2,30.3,60.3,30.2L60.3,30.2z M66,21.4c0-0.1,0.1-0.2,0.1-0.3
			L66,21c-0.1,0.1-0.2,0.1-0.3,0.2L66,21.4z M57.9,19.6c0,0.1,0,0.1,0,0.2s0.1,0,0.2,0v-0.3L57.9,19.6z M57.5,29.3
			c0,0,0.1,0,0.1-0.1s0-0.1,0-0.2l-0.2,0.1L57.5,29.3z M82.2,26.7h-0.2v0.2L82.2,26.7z M63.4,24.4l-0.1,0.1h0.1L63.4,24.4z"/>
	</g>
</g>
</svg>
