<?xml version="1.0" encoding="utf-8"?>
<!-- Generator: Adobe Illustrator 23.0.3, SVG Export Plug-In . SVG Version: 6.00 Build 0)  -->
<svg version="1.1" id="Calque_1" xmlns="http://www.w3.org/2000/svg" xmlns:xlink="http://www.w3.org/1999/xlink" x="0px" y="0px"
	 viewBox="0 0 88.8 71.5" style="enable-background:new 0 0 88.8 71.5;" xml:space="preserve">
<title>Bugle</title>
<g>
	<g>
		<path d="M88.4,25.7c-1.9-1.1-3.8-0.8-5.7-0.8c-2.4,0-4.8,0.1-7.2,0.3c-1.5,0.2-3.1,0.5-4.6,0.9c-1.6,0.4-3.2,0.8-4.8,1.1
			c-0.5,0.1-0.9,0.3-1.4,0.5c-0.2,0.1-0.4,0.3-0.5,0.5c0.2,0.9,0.9,1.4,1.5,2c1.1,1,2.2,2,3.3,3c1.4,1.3,2.4,3,2.9,4.8
			c0.5,1.9,0.5,3.9-0.1,5.9c-0.4,1.6-1.2,3.1-2.4,4.3c-1.4,1.5-2.7,3.1-4.2,4.6c-1.7,1.7-3.7,3-5.5,4.6c-2.9,2.3-5.9,4.5-9,6.5
			c-1,0.7-2,1.4-3.1,2c-3.6,1.9-7,4-10.9,5.2c-1.6,0.5-3.3,0.6-4.9,0.4c-3.3-0.3-6.4-1.8-8.6-4.3c-1.2-1.4-2.3-2.8-2.1-4.8
			c0-0.3,0-0.7-0.1-1c-0.6-1.9-0.5-4,0.3-5.8c0.1-0.2,0.2-0.4,0.3-0.7c0-0.2-0.1-0.4-0.3-0.6c-0.1-0.1-0.3-0.1-0.5,0
			c-0.7,0.4-1.4,0.9-2,1.5c-1.9,1.7-4.3,2.7-6,4.7c-0.4,0.4-0.8,0.9-1.1,1.3c-0.9,1.4-1.7,2.8-2.5,4.3c-0.8,1-1.7,2-2.7,2.8
			c-0.4-0.4-0.7-0.7-1-1.2c-1.6-2.6-3.4-5.1-5.3-7.5C0.2,59.8,0.1,59.4,0,59c2.4-1.3,5.1-2.2,7.8-2.7c1.4-0.3,2.6-0.9,3.8-1.7
			c3.8-2.6,7.6-5.2,11.4-7.9c1.4-1,2.7-2.1,4.1-3.2c0.9-0.7,1.9-1.4,2.8-2.1c0.4-0.3,0.5-0.9,0.2-1.4c0,0-0.1-0.1-0.1-0.1
			c-0.6-1.1-2-1.6-3.2-1c-0.3,0.2-0.7,0.3-1,0.5c-0.8-0.2-1.4-1-1.4-1.8c0.9-1.1,2.2-1.6,3.3-2.5c0.7-0.5,1.4-0.9,2.2-1.3
			c0.4-0.2,1-0.1,1.2,0.3c0.1,0.2,0.1,0.4,0.1,0.6c0,0.4-0.1,0.8-0.2,1.2c-0.1,0.3-0.2,0.7-0.3,1l1.7,2.1c1.2-0.3,2.4-0.8,3.3-1.6
			c0.4-0.3,0.5-0.8,0.2-1.3c-0.7-1.2-1.4-2.3-2.9-2.4c-0.2,0-0.4-0.1-0.6-0.2c-0.5-0.9-0.2-2,0.7-2.5c0.9-0.7,1.9-1.3,2.9-2
			c1.7,0.9,0.9,2.2,0.6,3.5l2,2.3c0.6-0.3,1.1-0.6,1.6-0.8s1.2-0.7,1.1-1.5c-0.2-1-0.5-2-1.7-2.1c-1,0-1.8-0.7-2.1-1.6
			c0.2-0.5,0.5-0.9,0.9-1.3c0.9-0.6,1.7-1.2,2.7-1.7c0.4-0.2,0.9-0.1,1.1,0.3c0.1,0.1,0.1,0.3,0.1,0.4c-0.1,0.7-0.2,1.4-0.4,2.1
			c0.5,1,1.2,1.9,2.1,2.6c1.7-1.2,3.3-2.4,5-3.6c2.3-1.8,4.7-3.7,7-5.6c3.9-3.2,7.3-7,9.9-11.3c0.2-0.4,0.5-0.9,0.8-1.3
			c1.4-1.8,2.1-4.1,2-6.4c0-1,0.2-2,0.4-3c0.3,0,0.5-0.1,0.6,0c2,0.9,4.1,1.8,6,2.9c4.4,2.3,8,5.9,10.4,10.2c1.3,2.4,2.2,5,2.7,7.7
			C88.9,22.5,88.9,24.1,88.4,25.7z M35.2,47.9c-0.2,0-0.5-0.1-0.7-0.2c-0.6-0.5-1.5-0.4-2,0.2c-0.3,0.3-0.6,0.5-0.9,0.8
			c-2,2.2-3.6,4.8-4.6,7.5c-0.2,0.5-0.3,1.1-0.2,1.7c0.2,1.8,0.8,3.6,1.7,5.1c0.7,1.1,1.8,1.7,3.1,1.8c2.7,0.3,5.5-0.3,7.9-1.6
			c1.9-1,3.7-2.2,5.6-3.1c2.4-1.3,4.7-2.8,6.8-4.4c0.6-0.5,1.2-0.9,1.8-1.3c3.7-2.1,7-4.8,9.7-7.9c1.1-0.9,1.8-2.2,2-3.6
			c0.7-2.1,0.2-4.4-1.3-6c-1.7-1.9-3.9-2.6-6.2-3.3c-1.5-0.5-2.5,0.5-3.7,0.9c-0.5,0.1-0.9,0.3-1.4,0.5c-1.7,0.7-3.3,1.6-4.8,2.6
			l0.6,1.7C44.3,42.5,39.8,45.4,35.2,47.9z M84,21.4c0.2-0.3,0.4-0.6,0.5-0.9c0.2-0.4,0-0.8-0.4-1c0,0,0,0,0,0c-0.1,0-0.2,0-0.2,0
			c-0.1,0.3-0.2,0.6-0.3,0.9C83.7,20.7,83.8,21.1,84,21.4z M75.3,12.8c-0.3,0.3-0.5,0.6-0.8,1c0,0.1,0.2,0.4,0.4,0.5
			c0.5,0.1,0.8-0.2,0.8-0.7C75.7,13.4,75.5,13.2,75.3,12.8L75.3,12.8z M75.7,20.6c-0.1,0.2-0.4,0.4-0.4,0.6c0,0.4,0.3,0.7,0.7,0.7
			c0,0,0,0,0,0c0.2,0,0.4-0.2,0.5-0.4c0.1-0.5-0.2-0.9-0.7-1C75.8,20.6,75.7,20.6,75.7,20.6L75.7,20.6z M68.7,23
			c-0.1-0.2-0.2-0.4-0.2-0.4c-0.2,0-0.4,0.1-0.6,0.1l0.3,0.6L68.7,23z M79.6,12.5c-0.1,0.1-0.3,0.1-0.3,0.2s0.1,0.2,0.1,0.4
			c0.1-0.1,0.3-0.1,0.3-0.2S79.7,12.6,79.6,12.5z M70.6,15.4c-0.1-0.1-0.1-0.3-0.2-0.4S70.2,15,70,15.1l0.2,0.5L70.6,15.4z
			 M61.1,25.4c0.1,0.1,0.3,0.1,0.4,0.2c0,0,0.1-0.1,0.2-0.2c-0.1-0.1-0.2-0.2-0.3-0.3S61.2,25.2,61.1,25.4L61.1,25.4z"/>
	</g>
</g>
<text transform="matrix(1 0 0 1 0 86.49)" style="font-family:'Arial-BoldMT'; font-size:5px;">Created by Carpe Diem</text>
<text transform="matrix(1 0 0 1 0 91.49)" style="font-family:'Arial-BoldMT'; font-size:5px;">from the Noun Project</text>
</svg>
