<?xml version="1.0" encoding="utf-8"?>
<!-- Generator: Adobe Illustrator 23.0.3, SVG Export Plug-In . SVG Version: 6.00 Build 0)  -->
<svg version="1.1" id="Calque_1" xmlns="http://www.w3.org/2000/svg" xmlns:xlink="http://www.w3.org/1999/xlink" x="0px" y="0px"
	 viewBox="0 0 90.8 71.5" style="enable-background:new 0 0 90.8 71.5;" xml:space="preserve">
<title>Electric Guitar</title>
<g>
	<g>
		<path d="M4.9,52.5c-1.2-1.1-2.4-2.3-3.7-3.5c-1.2-1.1-1.6-2.8-0.8-4.3c0.9-1.8,2.1-3.5,3.5-5c0.5-0.5,1-1,1.5-1.6l-0.5-2l1.4-1.8
			c1.7-2.2,3.5-4.4,5.4-6.4c0.3-0.3,0.6-0.6,0.9-0.9c0.5-0.5,1.3-0.5,1.9,0c0,0,0,0,0,0c0.6,0.6,1.6,0.7,2.2,0.1
			c1.3-0.8,2.8-0.9,4.2-0.4l0.5,0.2c1.1,0.5,2.3,0.2,3-0.8c0.7-0.9,1.5-1.6,2.3-2.4c1-1.1,2.2-1.9,3.7-2.3c0.5-0.1,1-0.2,1.6-0.2
			c2.3,0,4.6,0.1,6.9,0.5c2.5,0.4,3.6,1.8,3.8,4.3c0,0.6,0.1,1.2,0.2,1.7c0.2,0.5,0.4,1,0.6,1.5c-0.4,0.6-0.9,1.1-1.5,1.5
			c-3,1.9-3.9,5.9-2,8.9c0,0.1,0.1,0.2,0.1,0.2c0.1,0.1,0.2,0.1,0.4,0.2c0.4-0.3,0.9-0.7,1.3-1.1c4.1-3.6,8.2-7.2,12.3-10.9
			c3.5-3.1,6.8-6.3,10.3-9.4c2.7-2.4,5.5-4.8,8.3-7.2c0.9-0.7,1.2-1.9,0.8-3c-0.3-1-0.3-2,0-2.9c1.7-0.7,3.5-0.4,5.2-1
			S82,4,83.7,3.2S87,2,88.6,1.4c1.2,0.5,2,1.5,2.3,2.7c-1,0.7-2.1,1.4-3.2,2.2c-0.8,0.6-1.6,1.2-2.4,1.8c-1.1,1-2,2.1-3.1,3.2
			c-0.4,0.4-0.8,0.8-1.2,1.2c-0.4,0-0.8-0.1-1.1-0.2C79,11.9,78,12.2,77.4,13l-2.2,2.3c-0.4,0.4-0.8,0.9-1.2,1.3
			c-3.2,2.9-6.3,5.8-9.5,8.7c-3.9,3.6-7.9,7.3-11.8,10.9l-8,7.4c-0.2,0.2-0.3,0.3-0.5,0.6c0.6,1.4,0.9,3,0.9,4.6
			c0,0.5,0.2,1,0.6,1.3c1.2,1.2,3.1,1.3,4.3,0.1c0.4-0.3,0.8-0.7,1.2-1c0.5-0.4,1.1-0.5,1.6-0.2c0.5,0.3,0.8,0.9,0.8,1.5
			c0,0.4,0,0.7-0.1,1c-0.4,1.5-1.2,3-2.3,4.1c-0.5,0.6-1.2,1.1-2,1.3c-0.8,0.3-1.6,0.7-2.5,1c-0.5,0.2-1,0.4-1.5,0.4
			c-1.3-0.2-2.5,0.3-3.8,0.3c-1.2-0.1-2.4,0.7-2.7,1.9c-0.3,0.8-0.5,1.6-0.7,2.4s-0.4,1.5-0.5,2.2c-0.3,1.6-1.2,3.1-2.5,4.1
			c-0.9,0.8-1.9,1.4-2.9,1.8c-1.6,0.6-3.4,0.7-5,0.2c-1.4-0.3-2.7-0.7-4-1.2c-1-0.4-2-1-2.9-1.7c-1.3-1-2.6-2.2-3.9-3.4
			c-0.9-0.9-2.1-1.3-3.4-1.2c-1.5,0-3,0.2-4.6,0.4c-1.3,0.2-2.7-0.2-3.8-1c-0.5-0.4-1-0.8-1.5-1.2c-0.6-0.5-0.9-1.2-0.8-2
			c0.1-0.9,0.4-1.7,0.9-2.5c0.4-0.7,0.9-1.4,1.3-2.1C5,54.5,5.2,53.5,4.9,52.5z M26.6,51.7c0.3-0.1,0.6,0,0.6-0.4
			c0-0.2-0.2-0.3-0.4-0.6L26.6,51.7c0.3,0.3-0.1,0.8,0.4,1C27.3,52.1,26.7,52,26.6,51.7z M13.6,61.5c0-0.3,0-0.5,0-0.6
			c-0.9-1.3-1.4-2.8-1.5-4.3c-0.1-0.4,0-0.8-0.1-1.2c-0.5-2.5,0.2-4.8,0.8-7.1c0.4-1,1-1.9,1.7-2.6c0.8-1,1.8-1.8,3.1-2.3
			c2.4-0.9,4.9-1.3,7.4-1.1c0.3,0,0.7,0,1-0.2c1.2-0.6,2.2-1.6,2.6-2.9c0.2-0.7,0.4-1.3,0.6-2c0.7-2.1,1.3-4.3,3-5.9
			c1-1.8,2.9-2.5,4.6-3.4c1-0.6,2.2-0.7,3.3-0.5c0.9-1.6,0.7-2.4-0.7-3.3c-0.8-0.4-1.6-0.7-2.5-0.8c-0.6-0.1-1.2-0.1-1.8-0.1
			c-1.3-0.1-2.7-0.1-4-0.2c-0.9-0.1-1.8,0.2-2.4,0.9c-1.7,1.4-3.4,3-4.9,4.6c-0.7,0.8-1.8,1.2-2.9,0.9c-0.9-0.2-1.8-0.4-2.8-0.5
			c-0.4,0-0.8,0.1-1.3,0.2c0.2,1.2-0.3,2.3-1.4,2.9c-0.4,0.3-0.7,0.6-1,1c-1.2,1.4-2.3,2.8-3.5,4.2c-0.6,0.7-1.1,1.3-1.8,2
			s-1,0.5-1.7,0.1C7.6,39.1,7.3,39,7,38.9c-0.4,0.5-0.9,1-1.3,1.6c-0.8,1.3-1.6,2.6-2.4,3.9c-0.6,0.9-0.7,2.1-0.4,3.1
			c0.3,1.1,1,2,1.8,2.8C5.2,50.6,5.6,51,6,51.5c1.2,1.2,1.3,3,0.4,4.4c-0.7,1.1-1.3,2.2-1.9,3.4c-0.2,0.4-0.4,0.9-0.6,1.3
			c-0.2,0.6,0.1,1.3,0.7,1.7c0.7,0.4,1.5,0.6,2.3,0.5l4.8-0.9C12.4,61.7,13,61.6,13.6,61.5z M34.9,63.2c-0.2-0.1-0.5-0.3-0.7-0.3
			c-0.4,0.1-0.2,0.4,0,0.6s0,0.5,0,0.8s0.2,0.6,0.5,0.5s0.4-0.3,0.4-0.4C35.1,64.1,35,63.6,34.9,63.2z M36.2,60.3L36,60.2
			c-0.2,0.2-0.4,0.5-0.6,0.8c-0.1,0.3,0,0.6,0.5,0.4L36.2,60.3z M85.2,5.2c0.3-0.1,0.7-0.2,1-0.3c0.2,0,0.3-0.2,0.3-0.4
			c0-0.1,0-0.1-0.1-0.2C85.8,4.3,85.4,4.4,85.2,5.2L85.2,5.2z M30.7,51c0.1,0.3,0.4,0.4,0.7,0.3c0,0,0.1,0,0.1-0.1
			c0.2-0.1,0.3-0.3,0.3-0.5c0-0.2-0.5-0.4-0.7-0.3C30.9,50.6,30.8,50.8,30.7,51z M48.7,54.2c0-0.1,0.2-0.3,0.1-0.4
			c-0.1-0.3-0.5-0.5-0.8-0.3c0,0,0,0,0,0c-0.1,0.1-0.2,0.3-0.2,0.4C47.9,54.2,48.2,54.3,48.7,54.2L48.7,54.2z M37.7,29.9
			c-0.1,0-0.2-0.1-0.3-0.1c-0.4,0.2-0.6,0.6-0.5,0.9c0.1,0.1,0.1,0.1,0.3,0.1C37.6,30.8,37.8,30.4,37.7,29.9
			C37.7,29.9,37.6,29.9,37.7,29.9L37.7,29.9z M17.6,62.9c-0.3,0.1-0.2,0.5,0.1,0.9c0.1,0.1,0.2,0.1,0.3,0.1c0.1,0,0.2-0.2,0.2-0.3
			c0-0.2-0.1-0.4-0.2-0.7C17.8,62.9,17.6,62.9,17.6,62.9L17.6,62.9z M65.2,22.9c0-0.1,0-0.2-0.1-0.3c-0.2,0-0.5-0.1-0.6,0
			s-0.2,0.4-0.2,0.6c0,0,0.1,0.1,0.1,0.1L65.2,22.9z M54.9,28.9c0.3,0.1,0.5,0.2,0.6,0.1c0.1-0.2,0.2-0.4,0.3-0.6
			c-0.1,0-0.3-0.2-0.4-0.1C55.1,28.5,55,28.7,54.9,28.9L54.9,28.9z M18.1,46.3l-0.5-0.1c0,0.1-0.1,0.3-0.1,0.4s0.2,0.1,0.4,0.2
			L18.1,46.3z M25.6,45.3c0.1-0.2,0.2-0.3,0.2-0.5c0,0-0.2-0.2-0.2-0.2s-0.3,0.2-0.3,0.3S25.5,45.2,25.6,45.3L25.6,45.3z M31.3,65.6
			c-0.2-0.1-0.4-0.2-0.6-0.3c0,0-0.2,0.3-0.2,0.4c0.2,0.1,0.3,0.3,0.5,0.3C31.1,65.9,31.2,65.7,31.3,65.6z M32.6,60.7
			c-0.1-0.4-0.4-0.6-0.6-0.5c-0.1,0-0.2,0.3-0.2,0.4c0.1,0.2,0.3,0.3,0.5,0.3C32.4,61,32.5,60.8,32.6,60.7L32.6,60.7z M26.8,63
			l-1-0.2c0,0.2-0.1,0.4,0,0.5c0.2,0.1,0.4,0.2,0.6,0.2C26.4,63.4,26.5,63.2,26.8,63z M41.9,55.4c-0.2-0.2-0.4-0.3-0.6-0.4
			c-0.1,0-0.2,0.2-0.3,0.3c0.1,0.2,0.3,0.3,0.5,0.4C41.5,55.7,41.7,55.5,41.9,55.4L41.9,55.4z M46.3,36.1l-0.1,0.7
			c0.2,0,0.3,0.1,0.4,0c0.1-0.1,0.2-0.3,0.1-0.4C46.8,36.3,46.6,36.2,46.3,36.1L46.3,36.1z M57.7,30.1c0.1-0.2,0.1-0.4,0.1-0.7
			c0-0.1-0.3-0.1-0.4-0.2c-0.1,0.2-0.2,0.4-0.2,0.6C57.2,29.8,57.5,29.9,57.7,30.1L57.7,30.1z M34.5,41.9c0,0.2-0.1,0.4-0.1,0.5
			s0.2,0.2,0.4,0.3c0.1-0.2,0.2-0.3,0.2-0.4S34.7,42.1,34.5,41.9z M75.5,5.8c-0.1-0.1-0.2-0.2-0.3-0.1S75.1,5.8,75,5.9l0.4,0.2
			L75.5,5.8z M43.1,46.1c-0.5-0.1-0.6-0.2-0.7-0.1c-0.1,0.1-0.1,0.2-0.1,0.4c0.1,0.1,0.2,0.2,0.4,0.1C42.7,46.4,42.8,46.3,43.1,46.1
			z M43.4,50.3c-0.1-0.1-0.2-0.2-0.2-0.2s-0.1,0.1-0.2,0.2l0.3,0.3L43.4,50.3z M11,62.6c-0.1,0-0.2-0.1-0.3-0.1s-0.1,0.1-0.2,0.2
			c0.1,0,0.2,0.1,0.3,0.1S10.9,62.7,11,62.6z M38,57c-0.1-0.1-0.2-0.2-0.3-0.2S37.6,57,37.5,57l0.3,0.2L38,57z M14.5,57.9
			c0.5,0,0.7,0,0.8,0s0-0.3,0-0.4s-0.2-0.1-0.3,0C14.8,57.6,14.6,57.7,14.5,57.9L14.5,57.9z M28,67.7c0-0.2,0.1-0.4,0.1-0.5
			S27.8,67,27.6,67c0,0.1-0.1,0.3-0.1,0.4S27.8,67.5,28,67.7z M38.3,50.4c-0.5,0-0.6-0.1-0.7-0.1s-0.1,0.3-0.2,0.4
			c0.1,0,0.3,0.1,0.4,0.1S38.1,50.6,38.3,50.4z M22.8,67.2h-0.6c0,0.1,0,0.2,0,0.3s0.3,0.3,0.6,0.1C22.8,67.5,22.8,67.4,22.8,67.2z
			 M13.8,28h-0.1v0.1c0,0,0.1,0,0.1,0S13.8,28,13.8,28L13.8,28z M33.1,33.5c0,0.1,0,0.3,0,0.4c0,0,0.2,0,0.3,0.1
			c0-0.1,0.1-0.3,0.1-0.4C33.5,33.6,33.3,33.5,33.1,33.5L33.1,33.5z M70,17.5c0,0.1,0,0.3,0,0.4c0,0,0.2,0.1,0.3,0
			c0.1-0.1,0.1-0.3,0.2-0.4L70,17.5z M8.3,37.7l-0.3,0c0,0,0,0.1,0,0.2C8.1,37.9,8.2,38,8.2,38L8.3,37.7z M28.5,47.6l-0.4-0.3
			c0,0.1-0.1,0.2-0.1,0.3c0.1,0.1,0.2,0.3,0.3,0.4L28.5,47.6z M15.4,51.4l-0.3-0.1c0,0-0.1,0.1,0,0.2c0.1,0.1,0.1,0.1,0.2,0.2
			L15.4,51.4z M8.3,35.6L8,35.6c0,0-0.1,0.1,0,0.2c0.1,0.1,0.1,0.1,0.2,0.2L8.3,35.6z M28.6,58.2c0.1,0.1,0.1,0.2,0.3,0.2
			s0.1-0.1,0.2-0.1s-0.1-0.2-0.2-0.2S28.7,58.1,28.6,58.2z M2.6,44.2L2.8,44c0,0-0.1,0-0.1,0S2.6,44.1,2.6,44.2L2.6,44.2z
			 M52.6,34.6l-0.1-0.1c-0.1,0.1-0.1,0.2-0.2,0.2c0,0,0.1,0.1,0.1,0.1L52.6,34.6z M44,39.7l-0.3-0.3c-0.1,0.1-0.2,0.2-0.2,0.3
			c0,0,0.1,0.2,0.2,0.2L44,39.7z M46.5,40C46.5,40,46.4,39.9,46.5,40c-0.1-0.1-0.2,0-0.2,0l0.2,0.1L46.5,40z M33.3,67.3
			c-0.1,0-0.2,0-0.3-0.1c0,0-0.1,0.1,0,0.1c0.1,0.1,0.1,0.1,0.2,0.2L33.3,67.3z M18.8,64.6c-0.1,0-0.2-0.1-0.3-0.1
			c0,0-0.1,0.1,0,0.2c0.1,0.1,0.1,0.1,0.2,0.2L18.8,64.6z M39.8,56c0,0.1,0,0.2,0,0.3c0,0,0.1,0.1,0.1,0.1c0.1-0.1,0.1-0.2,0.2-0.2
			L39.8,56z M36.7,58v0.3c0.1,0,0.2,0,0.3,0c0-0.1,0-0.2,0-0.3C36.9,58,36.8,58,36.7,58z M44.2,55.6c0,0,0.1-0.1,0.1-0.1l-0.2-0.2
			c0,0-0.1,0.1-0.1,0.1C44.1,55.5,44.1,55.6,44.2,55.6L44.2,55.6z M25.7,61.2h-0.1v0.2c0,0,0.1,0,0.1,0S25.7,61.2,25.7,61.2z
			 M69.2,19.2c0,0-0.1-0.1-0.1-0.1c0,0-0.1,0-0.1,0.1C69,19.2,69,19.2,69.2,19.2C69.1,19.2,69.1,19.2,69.2,19.2L69.2,19.2z
			 M71.1,16.9L71.1,16.9c-0.1,0.1-0.1,0.2,0,0.1C71.1,17.1,71.1,17,71.1,16.9L71.1,16.9z M5.4,39.5v-0.2l-0.2,0.1
			c0,0,0.1,0.1,0.1,0.1S5.3,39.5,5.4,39.5z M24.6,52.9l-0.1,0c0,0.1,0,0.2,0,0.3c0,0,0.1,0,0.1,0.1L24.6,52.9z M29.3,54.8v-0.1h-0.1
			L29.3,54.8z M41,41.4c0,0,0-0.1-0.1-0.1s-0.1,0-0.2,0l0.1,0.2L41,41.4z M50.7,36.1v0.1h0.1L50.7,36.1z M62.7,24.7v0.1
			c0.1,0,0.2,0,0.3,0c0,0,0-0.1,0-0.1L62.7,24.7z M62.1,25.4v0.1l0.1-0.1L62.1,25.4z M23.5,50.4c0,0-0.1,0.1-0.1,0.1
			c0.1,0.1,0.1,0.2,0.2,0.2c0-0.1,0-0.2,0-0.3C23.6,50.4,23.6,50.4,23.5,50.4L23.5,50.4z M35,45.3l-0.2-0.2c0,0-0.1,0.1-0.1,0.1
			c0,0.1,0,0.2,0.1,0.3L35,45.3z"/>
		<path d="M86.7,0.2c0.1,0.5-0.2,1.1-0.7,1.3c-0.5,0.2-1.2,0.2-1.7,0c-0.3-0.2-0.4-0.7-0.1-0.9C84.8,0,85.8-0.2,86.7,0.2z"/>
		<path d="M79.2,2c0.4,1,0.3,1.2-0.2,1.4c-0.8,0.3-0.9,0.3-2-0.3c-0.1-0.4,0.2-0.9,0.6-1c0,0,0.1,0,0.1,0C78.1,2.1,78.6,2.1,79.2,2z
			"/>
		<path d="M80.6,2.5C80.7,1.4,81,1,81.7,1.1c0.2,0,0.4,0.1,0.6,0.3c0.2,0.3,0.3,0.7,0.4,1C82.1,2.8,81.3,2.9,80.6,2.5z"/>
		<path d="M75.7,3.3c-0.2,0.4-0.5,0.7-0.8,1.1c-0.5,0.3-1.1,0.1-1.4-0.3c-0.1-0.2-0.1-0.3,0-0.5c0.3-0.3,0.7-0.5,1.1-0.6
			C75,2.9,75.3,3.1,75.7,3.3z"/>
	</g>
</g>
<text transform="matrix(1 0 0 1 0 86.45)" style="font-family:'Arial-BoldMT'; font-size:5px;">Created by Carpe Diem</text>
<text transform="matrix(1 0 0 1 0 91.45)" style="font-family:'Arial-BoldMT'; font-size:5px;">from the Noun Project</text>
</svg>
