<?xml version="1.0" encoding="utf-8"?>
<!-- Generator: Adobe Illustrator 23.0.3, SVG Export Plug-In . SVG Version: 6.00 Build 0)  -->
<svg version="1.1" id="Calque_1" xmlns="http://www.w3.org/2000/svg" xmlns:xlink="http://www.w3.org/1999/xlink" x="0px" y="0px"
	 viewBox="0 0 85.1 90.1" style="enable-background:new 0 0 85.1 90.1;" xml:space="preserve">
<title>Guitar</title>
<g>
	<g>
		<path d="M68.5,9.4c1-1,1.6-2.2,2.7-2.9c0.4-0.3,0.7-0.7,0.9-1.1c1-1.3,2.2-2.6,3.5-3.7c0.6-0.7,1.6-0.9,2.4-0.6
			c1.2,0.2,2.4,0.4,3.7,0.5c0.8,1.3,1.3,2.8,1.6,4.3c-1,1.5-2.1,3-3.4,4.4c-0.9,1-1.7,2-2.5,3c-0.2,0.4-0.3,0.8-0.4,1.3
			c0.8-0.1,1.4-0.2,1.9-0.2c0.5,0,0.9,0.3,1.1,0.8c0.2,0.6-0.1,1.3-0.6,1.6c-0.4,0.5-1.2,0.6-1.7,0.2c-0.5-0.5-0.9-1-1.2-1.5
			c-0.9,0.1-1.9,1.1-3,0.2c-0.5,0.5-0.8,0.9-1.1,1.2c-1,1.3-2,2.6-3,3.9c-0.8,1.2-1.8,2.2-2.8,3.2c-0.9,0.9-1.8,1.9-2.5,3
			c-2.8,3.6-5.5,7.3-8.3,11C55,39,54,40.1,53,41.3c-1,1.1-1.9,2.2-2.6,3.5c0.1,0.5,0.3,0.9,0.6,1.3c1.1,1.4,2,2.9,2.6,4.6
			c0.9,1.9,1,4.1,0.3,6.1c-0.4,1.9-1.4,3.6-2.9,4.8c-0.1,0.1-0.2,0.2-0.3,0.3c-0.8,1.1-1.9,2-3.2,2.5c-1.5,0.8-2.7,2-4.1,3
			c-1.1,0.7-1.8,1.9-1.9,3.2c-0.4,2.1-0.7,4.2-0.9,6.3c-0.3,3.1-1.7,6-3.8,8.2c-0.8,0.9-1.7,1.7-2.7,2.5c-1.3,1.1-2.8,1.8-4.4,2.1
			c-2.9,0.7-6,0.7-8.9-0.2c-3.7-1-7.2-2.4-10-5.3c-1.3-1.4-2.7-2.7-4.1-4c-0.5-0.5-1-1.1-1.5-1.7C4.1,77.1,3,75.6,2,74.1
			c-1.3-1.9-2-4.1-2-6.3c0.1-0.9,0-1.8,0-2.7c0-1.7,0.6-3.4,1.6-4.7c1.1-1.4,2.3-2.7,3.7-3.8c1.5-1.1,3.2-1.9,5-2.2
			c1.7-0.4,3.5-0.7,5.2-1.1c1.1-0.3,2.2-0.6,3.3-1c0.8-0.3,1.4-0.9,1.7-1.7c0.4-0.9,0.7-1.9,0.9-2.9c0.3-2.8,1.4-5.5,3.4-7.5
			c1.3-1.4,2.8-2.5,4.6-3.3c2.4-1,5.1-1.2,7.6-0.6c1.3,0.2,2.5,0.5,3.8,0.7c0.4,0.1,0.7,0.3,1.1,0.5c0.9,0.5,2.1,0.4,2.9-0.3
			c0.8-0.7,1.7-1.3,2.6-2c0.3-0.3,0.6-0.6,0.7-0.9c0.1-0.4,0.5-0.7,0.9-0.8c0.6-0.2,1.1-0.6,1.4-1.1c1.5-1.9,3.2-3.7,5-5.3
			c0.2-0.1,0.3-0.3,0.4-0.5c1.3-1.5,2.6-3,3.9-4.5c0.3-0.3,0.6-0.5,0.9-0.8c0.7-0.7,1.4-1.3,2-2c1.3-1.4,2.5-2.9,3.8-4.2
			c0.9-0.8,1.6-1.6,2.3-2.5c0.1-0.2,0.2-0.3,0.4-0.5c0.4-0.5,0.5-1.2,0.1-1.7C69,10.1,68.8,9.8,68.5,9.4z M38.5,49.8
			c-1.2-0.9-2.7-1.3-4.2-1.1c-1.5,0.3-2.8,1-3.9,2c-0.1,0.1-0.2,0.2-0.2,0.3c-0.8,2.1-1.1,4.2,0.1,6.3c0.4,1,1.2,1.7,2.3,1.9
			c0.3,0,0.5,0.1,0.8,0.3c1.2,0.8,2.4,0.5,3.5,0.1s2.4-0.7,2.7-2.2c0.1-0.2,0.2-0.3,0.4-0.4c0.4-0.2,0.6-0.6,0.7-1
			C41.1,53.7,40.4,51.3,38.5,49.8L38.5,49.8z M20.9,79c-0.4,0.2-0.8,0.3-0.9,0.5c-0.2,0.3-0.2,0.7,0,0.9c0.3,0.2,0.7,0.1,0.9-0.1
			c0-0.1,0.1-0.1,0.1-0.2C21,79.7,21,79.4,20.9,79z M20.1,86.1c0-0.1,0.1-0.1,0.1-0.2c0-0.4-0.3-0.8-0.7-1c-0.2,0-0.4,0.1-0.5,0.2
			c-0.3,0.3,0,0.8,0.6,1c0.1,0,0.3,0.1,0.4,0.1C20,86.3,20,86.2,20.1,86.1L20.1,86.1z M34.1,69.1c-0.6,0.1-0.8,0.5-0.9,0.9
			c0,0.2,0,0.4,0.2,0.5c0.2,0.1,0.4,0.1,0.5,0C34.5,70.3,34.5,70,34.1,69.1L34.1,69.1z M29.6,74.3c0,0.3,0,0.6,0,0.9
			c0.1,0.2,0.2,0.3,0.4,0.3c0.2,0,0.3-0.2,0.4-0.3C30.7,74.7,30.3,74.4,29.6,74.3L29.6,74.3z M14.6,66.5c0.3,0.1,0.4,0.2,0.5,0.1
			s0.3-0.3,0.3-0.4c-0.1-0.3-0.2-0.5-0.4-0.7c-0.1-0.1-0.5,0.1-0.5,0.1C14.6,66,14.6,66.3,14.6,66.5L14.6,66.5z M11.4,60.5
			c0.3-0.1,0.5-0.1,0.7-0.2c0.2-0.1,0.2-0.4,0.1-0.6c0,0-0.1-0.1-0.1-0.1c-0.2-0.2-0.5-0.2-0.7,0S11.3,60.2,11.4,60.5L11.4,60.5z
			 M22.2,57.8l1-0.1c0-0.2-0.1-0.4-0.2-0.5c-0.3-0.3-0.7-0.3-0.8,0C22.1,57.4,22.1,57.6,22.2,57.8z M56.8,32.6
			c-0.2,0-0.4,0.1-0.6,0.2c-0.1,0,0,0.2,0,0.4c0.2,0,0.4,0.1,0.5,0S56.7,32.9,56.8,32.6z M26.5,58.5c0-0.2-0.1-0.4-0.1-0.6
			c-0.1-0.1-0.2-0.1-0.3,0c-0.1,0.1-0.2,0.4-0.1,0.5S26.3,58.4,26.5,58.5z M69.6,16c-0.3,0.3-0.6,0.4-0.7,0.5s0.1,0.4,0.1,0.5
			c0.2-0.1,0.4-0.2,0.6-0.4C69.7,16.7,69.6,16.4,69.6,16z M41.1,41.1c0-0.2,0-0.5-0.1-0.7c0-0.1-0.1-0.1-0.2-0.1
			c-0.1,0-0.3,0.1-0.3,0.2c0,0.2,0.1,0.5,0.1,0.7C40.7,41.2,40.9,41.2,41.1,41.1z M59,27.4c-0.3,0.1-0.6,0.2-0.6,0.3
			c0,0.2,0.1,0.5,0.2,0.7c0.1,0,0.3,0,0.3-0.1C58.9,28,59,27.7,59,27.4z M21.4,62.4c-0.8,0.8-0.8,0.8-0.1,1.5L21.4,62.4z M8.8,64.8
			l0.1-0.6c-0.2,0-0.4-0.1-0.5,0s-0.1,0.3-0.2,0.5L8.8,64.8z M27.6,74.4l-0.5-0.7c-0.1,0.1-0.4,0.2-0.4,0.3c0,0.2,0.1,0.4,0.2,0.5
			C27.1,74.6,27.3,74.5,27.6,74.4L27.6,74.4z M25.3,54.8c-0.1-0.2-0.2-0.4-0.3-0.6c-0.2,0.1-0.4,0.2-0.6,0.3c0,0,0.1,0.3,0.1,0.3
			C24.8,54.8,25,54.8,25.3,54.8z M29.3,51.1L29,50.3c-0.2,0.1-0.4,0.2-0.5,0.3c-0.1,0.2,0,0.4,0.1,0.5C28.7,51.2,29,51.1,29.3,51.1
			L29.3,51.1z M50.7,48.6H50c0,0.2,0.1,0.5,0.1,0.7c0,0,0.3,0,0.3,0C50.5,49.1,50.6,48.9,50.7,48.6L50.7,48.6z M44.4,46.9
			c0-0.1,0.1-0.3,0-0.3s-0.2-0.1-0.3-0.1v0.4L44.4,46.9z M19.4,59.1l-0.1-0.3C19.2,58.8,19,58.9,19,59s0.1,0.2,0.1,0.3L19.4,59.1z
			 M29.7,66.9c0-0.2,0-0.4-0.1-0.5c-0.1-0.1-0.2-0.1-0.4-0.1c-0.2,0-0.2,0.5,0,0.6C29.4,66.9,29.5,66.9,29.7,66.9L29.7,66.9z
			 M5.2,60.9c0-0.2,0.1-0.4,0.1-0.4c-0.1-0.1-0.3-0.1-0.4-0.1c0,0-0.1,0.3-0.1,0.3C4.9,60.8,5,60.9,5.2,60.9z M62.7,25
			c-0.1-0.1-0.1-0.3-0.2-0.3s-0.2,0.1-0.3,0.1c0.1,0.1,0.1,0.3,0.2,0.3S62.6,25.1,62.7,25z M36.9,44.3c0-0.2-0.1-0.4-0.1-0.6
			c0-0.1-0.3-0.1-0.3-0.1s-0.2,0.3-0.1,0.5S36.6,44.2,36.9,44.3z M39.3,67.1c0.1,0.2,0.2,0.4,0.3,0.6c0.1,0,0.2-0.1,0.3-0.2
			c0.1-0.1,0-0.3,0.1-0.4L39.3,67.1z M48,48.5c0-0.1,0-0.1,0-0.2s-0.1,0-0.2,0l0.1,0.3L48,48.5z M16.8,63.1l-0.1-0.3
			c-0.1,0.1-0.2,0.1-0.2,0.2c0,0,0,0.2,0.1,0.2C16.6,63.2,16.7,63.2,16.8,63.1z M31.7,67.5l0.1,0.3c0.1,0,0.2-0.1,0.2-0.1
			c0-0.1,0-0.2-0.1-0.3L31.7,67.5z M25.1,87.1c0-0.1,0-0.1,0-0.2s-0.1,0-0.2,0v0.3L25.1,87.1z M47.5,39.1c0.2,0,0.4,0.1,0.4,0
			C48,39,48,38.9,48,38.7c-0.1,0-0.3-0.1-0.3-0.1C47.6,38.8,47.5,38.9,47.5,39.1L47.5,39.1z M35,81.9c0,0.1-0.1,0.3,0,0.3
			s0.2,0.1,0.3,0.1v-0.4L35,81.9z M26,77c0-0.1-0.1-0.2-0.1-0.3h-0.2c0,0.1,0,0.2,0,0.3L26,77z M18.4,67.1h-0.1H18.4L18.4,67.1z
			 M28.9,57.9H29c0,0,0-0.1,0-0.2s-0.1,0-0.1,0L28.9,57.9z M11.5,65.6v-0.2h-0.2v0.2L11.5,65.6z M21.7,54.1l-0.1-0.2
			c-0.1,0-0.2,0.1-0.3,0.2c0,0,0,0.1,0,0.2L21.7,54.1z M53.3,34.4c0,0,0-0.1,0-0.2s-0.1,0-0.1,0v0.2L53.3,34.4z M37.7,38.9
			c0,0,0.1-0.1,0-0.2s-0.1-0.1-0.1-0.1l-0.1,0.3L37.7,38.9z M45,41.2L44.9,41l-0.2,0.2c0,0,0.1,0.1,0.2,0.1S45,41.2,45,41.2z
			 M26.7,44.5l0.1-0.2c-0.1,0-0.1-0.1-0.2-0.1s0,0.1-0.1,0.1L26.7,44.5z M33,40.8L33,40.8L33,40.8L33,40.8z M17.1,69.7
			c-0.1,0-0.1,0-0.2,0.1s0,0.1,0,0.2s0.1,0,0.2-0.1S17.1,69.7,17.1,69.7z M14.2,68.9c0,0,0.1-0.1,0-0.1s-0.1-0.1-0.1-0.1L14,68.9
			L14.2,68.9z M6.8,77H7l-0.1-0.1L6.8,77z"/>
		<path d="M69.5,5.5c-0.1,0.2-0.1,0.3-0.1,0.5C69.7,7.8,68.5,8.2,67,8c-0.2,0-0.4-0.1-0.6-0.2c-0.4-0.4-0.4-1.1-0.1-1.5
			c0.3-0.4,0.7-0.6,1.1-0.8c0.4-0.1,0.8-0.2,1.2-0.3l-0.2-1.7c0.2-0.2,0.5-0.3,0.7-0.4c0.6-0.4,1.5-0.2,1.8,0.4
			c0.1,0.1,0.1,0.2,0.2,0.3c0.2,0.5,0,1.1-0.5,1.3c0,0,0,0,0,0C70.2,5.3,69.8,5.4,69.5,5.5z"/>
		<path d="M73.2,0.3c0.7,0.5,0.8,1.4,0.3,2.1c0,0,0,0,0,0c-0.5,0.5-1.4,0.6-2,0.2c-0.6-0.6-0.7-1.5-0.3-2.2
			C71.8-0.1,72.6-0.2,73.2,0.3z"/>
		<path d="M82.5,10.5c-0.3-0.6-0.6-1-0.2-1.6c0.3-0.5,0.8-0.8,1.3-0.8c0.5-0.1,1,0.1,1.2,0.5c0.6,0.8,0.4,1.4-0.4,1.8
			C83.8,10.7,83.1,10.7,82.5,10.5z"/>
		<path d="M80.2,13.4c-0.4-0.7-0.6-1.3,0.1-1.8c0.5-0.5,1.3-0.6,1.9-0.2c0.8,0.6,0.3,1.3,0.1,2.1C81.6,13.7,80.8,13.7,80.2,13.4z"/>
	</g>
</g>
<text transform="matrix(1 0 0 1 0 105.1)" style="font-family:'Arial-BoldMT'; font-size:5px;">Created by Carpe Diem</text>
<text transform="matrix(1 0 0 1 0 110.1)" style="font-family:'Arial-BoldMT'; font-size:5px;">from the Noun Project</text>
</svg>
