<?xml version="1.0" encoding="utf-8"?>
<!-- Generator: Adobe Illustrator 23.0.3, SVG Export Plug-In . SVG Version: 6.00 Build 0)  -->
<svg version="1.1" id="Calque_1" xmlns="http://www.w3.org/2000/svg" xmlns:xlink="http://www.w3.org/1999/xlink" x="0px" y="0px"
	 viewBox="0 0 89.6 83.6" style="enable-background:new 0 0 89.6 83.6;" xml:space="preserve">
<title>Accordian</title>
<g>
	<g>
		<path d="M78,74.3c-0.3,0.1-0.7,0.1-1.1,0.1c-1.5-0.2-2.9-0.6-4.4-0.8s-2.7-0.9-4.2-0.2c-1.2-1.5-2.9-2.5-4.8-2.8
			c-1.8-1.2-3.7-0.8-5.6-0.5c-0.2,0.1-0.4,0.1-0.7,0.1c-3.1-0.2-6.1,0.4-9.2,0.5c-1.4,0-2.8-0.1-4.2-0.2c-0.1,0.2-0.3,0.3-0.3,0.4
			c-0.2,2.2-1.6,3.3-3.5,4c-0.5,0.2-1,0.4-1.5,0.6c-1.3,0.5-2.3,1.4-3,2.6c-0.3,0.4-0.6,0.9-0.8,1.2c-3.7,1.2-7.5,1.6-11.1,2.9
			c-0.1,0.1-0.3,0.1-0.4,0.1c-1.8,0-3.6,0.3-5.3,1c-0.3,0.1-0.6,0.1-0.9,0.1c-0.5,0-0.9-0.3-1-0.7c-0.1-0.5-0.2-1-0.2-1.6
			c-0.1-0.9-0.1-1.8-0.3-2.7c-0.6-3.2-1.3-6.3-2-9.4c-0.8-3.9-1.4-7.8-2.4-11.6c-0.9-3.5-1.2-7.1-2.4-10.5c-0.5-1.7-0.9-3.5-1.1-5.3
			c-0.4-2.7-1.1-5.3-1.7-7.9c-0.7-3.2-1.3-6.5-2-9.7c-0.4-2-0.8-4-1.3-5.9c-0.2-0.9-0.3-1.8-0.5-2.6c-0.3-1.5-0.8-2.9-1.4-4.3
			C0,9.9,0.2,8.2,0,6.6c0.2-0.2,0.4-0.3,0.6-0.4c2.6-0.3,5.2-0.9,7.7-1.8c1.4-0.5,2.9-0.8,4.4-0.9c0.2,0,0.4,0,0.7-0.1l4.6-1
			c0.3,0.2,0.5,0.2,0.5,0.3c0.9,1.8,2.4,3.1,4.2,3.8c1,0.6,2.2,0.7,3.3,0.4c0.7-0.2,1.4-0.5,2-0.9c0.9-0.7,2.2-0.6,3,0.2
			c0.2-0.1,0.4-0.1,0.4-0.2c1-1.4,2.3-1.4,3.8-0.8c0.7,0.3,1.3,0.8,2.2,0.6c0.6-0.6,1.1-1.4,1.5-2.2c0.3-0.6,0.9-0.9,1.5-0.8
			c0.6,0,1.2,0.2,1.7,0.4c0.9,0.4,1.7,0.9,2.7,1.4l0.7-1.1c0.9-1.5,2.9-2.1,4.5-1.1c0.1,0,0.1,0.1,0.2,0.1c0.7,0.4,1.3,0.9,1.9,1.4
			c0.7-0.2,0.8-0.8,1-1.3c0.6-1.5,1.6-1.9,3-1.1c0.9,0.5,1.8,1,2.8,1.5c1.2-1.1,1.5-3,3.6-3.2c1.8,0.3,2.8,2.1,4.1,3.2
			c0.8-0.1,1.1-0.7,1.4-1.2c0.8-1.3,2.5-1.6,3.8-0.8c0.2,0.2,0.5,0.4,0.6,0.6c0.5,0.5,0.9,1,1.4,1.6c0.7-0.4,1.3-0.8,1.9-1.1
			c0.3-0.2,0.7-0.5,1-0.4c1.5,0.3,2.9-0.2,4.4-0.1s2.9,0,4.3,0.1c0.9,0.1,1.8,0.4,2.7,0.6c1.1,2.3,1.6,4.8,1.4,7.4
			c-0.1,1.3-0.3,2.7-0.6,4c-0.5,1.8-0.2,3.7-0.9,5.5c-0.3,1-0.4,2.1-0.4,3.1c-0.2,1.7-0.4,3.4-0.7,5.1c-0.5,2.8-0.6,5.6-1.3,8.4
			c-0.1,0.5-0.2,1-0.2,1.6c0,0.5,0,1.1-0.1,1.6c-0.8,3.3-1.3,6.6-1.6,10c-0.7,1.7-0.4,3.5-0.9,5.3c-0.4,1.3-0.3,2.8-0.6,4.2
			c-0.3,1.7-0.5,3.4-0.7,5.1c-0.1,1-0.3,2.1-0.4,3.1c-0.1,2-0.7,3.8-1.9,5.4C78.8,73,78.3,73.7,78,74.3z M75.1,50.9l1,0.5
			c0.7-0.7,1-1.7,0.9-2.7c0-0.1-0.2-0.3-0.3-0.3s-0.5,0-0.6,0.2C75.8,49.3,75.4,50.1,75.1,50.9l-0.3-1.2c-1,0.3-1.7,1.1-1.9,2.1
			c-0.1,0.3-0.1,0.6-0.1,0.9c0,0.2,0.2,0.4,0.3,0.5c0.2,0.1,0.4,0.1,0.6,0c0.5-0.2,0.8-0.7,0.9-1.2C74.8,51.6,74.9,51.2,75.1,50.9z
			 M18.4,65.1c0.7-0.4,1.5-0.6,2.1-1.3c-0.1-0.3-0.1-0.7-0.3-0.8c-0.3-0.2-0.6-0.4-1-0.4c-1.4,0.2-2.8,0.5-4.2,0.9
			c-0.3,0.1-0.6,0.2-0.9,0.4c-0.1,1,0.3,1.5,1.1,1.5c0.7,0,1.3-0.1,2-0.2C17.6,65.2,18.1,65.1,18.4,65.1c-0.4,0.5-1.1,0.5-1.7,0.7
			s-1.5,0.2-1.9,0.8c0,0.6,0.3,0.9,0.7,0.9c0.8,0.1,1.6,0,2.4-0.1c3-0.6,6-1.4,9-1.9c1-0.2,2-0.6,3-1c0.2-0.2,0.4-0.4,0.4-0.7
			c-0.1-0.3-0.3-0.5-0.6-0.6c-0.4-0.1-0.7-0.1-1.1,0c-2,0.5-4,1-6.1,1.4C21.1,64.8,19.7,64.9,18.4,65.1z M13.1,29.4
			c1.4-0.7,2.9-1.1,4.5-1.3c1.3-0.2,2.6-0.5,3.9-1c0.4-0.2,0.7-0.4,0.5-0.8c-0.1-0.3-0.4-0.4-0.7-0.5c-0.8,0-1.6,0.1-2.4,0.3
			c-2.8,0.8-5.6,1.4-8.5,1.8c-0.9,0.2-1.9,0.4-2.8,0.6c-0.3,0.1-0.5,0.3-0.6,0.6c0,0.3,0.1,0.6,0.4,0.8c0.4,0.4,0.9,0.3,1.5,0.2
			C10.2,29.8,11.6,29.1,13.1,29.4c-0.4,0.2-0.8,0.4-1.3,0.6c-1.1,0.3-2.3,0.4-3.5,0.6c-0.9,0.2-1.1,0.7-0.7,1.9l2.8-0.1l-2.5,1.1
			c0,0.3,0,0.5,0,0.8c0,0.1,0.1,0.3,0.2,0.4c0.3,0.1,0.5,0.2,0.8,0.3c0.1,0,0.3,0,0.4,0c1.6-0.4,3.2-0.8,4.8-1.2
			c0.5-0.2,0.8-0.7,0.6-1.3c0,0,0,0,0,0c-0.1-0.6-0.6-0.5-1.1-0.5c-0.4,0-0.7,0.2-1.1,0.2c-0.7,0.1-1.5,0.1-2.2,0.2
			c0.4-0.2,0.8-0.4,1.2-0.5c3.2-0.7,6.4-1.4,9.6-2.1c0.4-0.1,0.8-0.3,1.2-0.6c0.3-0.3,0.3-0.7,0-1c-0.1-0.1-0.1-0.1-0.2-0.1
			c-0.4-0.1-0.9-0.1-1.3-0.1c-1.2,0.2-2.3,0.6-3.5,0.8C15.9,29,14.4,29.2,13.1,29.4L13.1,29.4z M14.5,55.4l-2,1.3
			c-0.1,0.5,0.2,0.8,0.6,0.8c1.8,0.2,3.6-0.5,5.3-0.7c0.3-0.1,0.7-0.6,0.9-0.9s-0.1-0.7-0.2-1.1C18,55,17,55.2,16,55.4
			C15.5,55.7,15,55.7,14.5,55.4c0.1-0.1,0.3-0.3,0.5-0.4l11.3-2.8c0.2,0,0.4-0.1,0.6-0.2c0.2-0.2,0.3-0.5,0.4-0.8
			c0-0.4-0.3-0.7-0.7-0.8c-0.1,0-0.3,0-0.5,0c-1.8,0.4-3.6,0.9-5.4,1.3c-0.6,0.1-1.1,0.1-1.7,0c0.2-0.2,0.5-0.4,0.7-0.5
			c0.9-0.2,1.9-0.4,2.9-0.6c1.5-0.4,3.1-0.5,4.4-1.3c-0.5-1.6-0.5-1.7-1.8-1.3c-2.1,0.6-4.3,0.7-6.2,1.8c-0.3,0.1-0.6,0.1-0.9,0.1
			c-1.9,0.1-3.9,0.5-5.7,1c-0.2,0-0.5,0.1-0.6,0.3c-0.2,0.2-0.2,0.5-0.2,0.8c0.2,0.5,0.7,0.8,1.2,0.8c0.4,0,0.9-0.1,1.3-0.2l4.8-0.8
			c-0.6,0.5-1.3,0.8-2,0.8c-1.5,0.3-2.9,0.7-4.4,1C12.3,53.7,12,54,12,54.4c0,0.5,0.3,0.9,0.8,0.9c0,0,0,0,0,0
			C13.4,55.4,14,55.3,14.5,55.4L14.5,55.4z M11.1,45.5c-0.2,0.3-0.4,0.7-0.5,1c-0.3,0.9,0.2,1.6,1.1,1.4s1.7-0.4,2.6-0.6l10.4-2.5
			c0.7-0.2,1.1-0.6,1-1.2s-0.5-0.7-1.2-0.6c-2,0.4-4,0.9-6.1,1.4c-1.6,0.5-3.3,0.7-5.1,0.8c0.6-0.5,1.3-0.8,2.1-0.8
			c0.4,0,0.9-0.1,1.3-0.2c2.4-0.9,4.9-1.5,7.4-1.9c0.9-0.1,1.1-0.7,0.9-1.9c-1.7,0.2-3.4,0.5-5,0.9c-1.4,0.5-2.9,0.7-4.4,0.7
			c0.8-1.5,0.7-2-0.7-2.9c0.2-0.2,0.5-0.3,0.8-0.4c2.4-0.6,4.7-1.1,7.1-1.7c0.4-0.1,0.7-0.2,1-0.4c0.4-0.2,0.6-0.6,0.4-1
			c0-0.1-0.1-0.1-0.1-0.2c-0.2-0.3-0.5-0.5-0.9-0.5c-1,0.1-1.9,0.3-2.9,0.4c0.7-0.7,1.6-1.1,2.6-1.1c0.4-0.1,0.6-0.4,0.6-0.7
			c0-0.1,0-0.1-0.1-0.2c-1-0.3-2.1-0.2-3,0.2c-1,0.4-2,0.6-3,0.7c-1.5,0.2-3.1-0.1-4.6,0.4c-1.3,0.4-2.6,0.7-3.9,1.1
			c-0.3,0.1-0.5,0.3-0.6,0.6c-0.1,0.2,0.1,0.5,0.1,0.9c1.1,0,2.3-0.1,3.4-0.3c2.5-0.6,4.9-1.2,7.4-1.7c0.3,0,0.7,0.1,1,0.2
			c-1,0.3-2,0.7-3,0.9c-2.5,0.6-4.9,1-7.4,1.6c-1.2,0.3-1.4,0.8-0.7,2.2l5.6-0.9c-0.5,0.5-1.1,0.8-1.8,0.9c-1,0.2-2,0.4-3,0.7
			c-0.5,0.2-0.8,0.7-0.7,1.3c0.1,0.5,0.5,1,1.1,0.9c0,0,0,0,0,0c0.4,0,0.7-0.1,1.1-0.1l2.2-0.3c-0.4,0.6-1.2,0.6-1.8,0.8
			c-0.6,0.2-1.3,0.4-1.9,0.7c-0.3,0.1-0.4,0.5-0.3,0.8c0,0.1,0.1,0.1,0.2,0.2C10.4,45.1,10.7,45.3,11.1,45.5L11.1,45.5z M18.8,74.9
			l-2.1,1c0.3,1.3,0.6,1.6,1.4,1.4c1.2-0.3,2.3-0.6,3.5-0.9c0.8,0,1.4-0.4,1.9-1c0.2-0.3,0.6-0.5,0.9-0.5c2.4-0.4,4.7-0.9,6.9-1.7
			c0.2-0.1,0.3-0.2,0.5-0.3c-0.4-0.7-1-0.5-1.4-0.4c-2.3,0.5-4.7,1-7,1.6c-0.9,0.3-1.9,0.4-2.9,0.4c1.3-0.7,2.6-1.1,4-1.4
			c1.5-0.3,3-0.6,4.6-1c0.9-0.2,1.8-0.5,2.7-0.8c-0.4-1.5-0.5-1.6-1.5-1.4c-1.7,0.4-3.4,1-5.2,1.2c-1.4,0.2-2.7,1-4.1,0.6
			c0.3-0.2,0.6-0.5,0.8-0.8c0.2-0.2,0.3-0.5,0.2-0.8c-0.1-0.2-0.4-0.4-0.7-0.4c-1.5-0.2-2.9,0.5-4.4,0.7c-0.6,0-1,0.4-1.1,0.9
			c0,0.4,0.5,0.7,1.4,0.7c0.7,0,1.3-0.1,2-0.2c0.6-0.1,1.2-0.2,1.8-0.3c-0.6,0.3-1.2,0.5-1.8,0.8c-0.8,0.2-1.6,0.4-2.4,0.6
			c-0.4,0-0.7,0.3-0.7,0.7c-0.1,0.5,0.2,0.9,0.7,1c0,0,0,0,0,0C17.5,74.8,18.2,74.8,18.8,74.9z M7.5,25.7l-1.3,1L7,28
			c1.7-0.3,3.3-0.6,4.9-1c1.1-0.2,1.3-0.8,1-2c-0.2,0-0.4,0-0.6,0L7.5,25.7c0.6-0.3,1.3-0.5,2-0.7c3.3-0.7,6.7-1.4,10-2.1
			c0.3-0.1,0.7-0.2,1-0.4c0.4-0.2,0.5-0.7,0.3-1.1c0,0,0,0,0-0.1c-0.2-0.4-0.7-0.6-1.1-0.5c-1.6,0.3-3.2,0.7-4.8,0.9
			s-3.2,0.9-4.8,0.8c0.3-0.3,0.6-0.5,0.9-0.6c1.1-0.3,2.2-0.4,3.3-0.7c1.8-0.4,3.5-0.7,5.2-1.1c0.4-0.1,0.6-0.4,0.6-0.8
			c0,0,0-0.1,0-0.1c-0.1-0.3-0.4-0.7-0.6-0.8c-0.6-0.1-1.2-0.1-1.8,0c-1.4,0.3-2.8,0.6-4.2,0.9c-1.9,0.4-3.8,0.7-5.7,1.1
			c-0.9,0.2-1.7,0.5-2.5,0.7c-0.2,0.5,0,1.1,0.5,1.3c0,0,0.1,0,0.1,0c0.5,0.1,1,0.2,1.5,0.2c-0.3,0.9-1.3,0.5-1.8,1.2
			c-0.1,0.6,0,1.1,0.7,1.3C6.8,25.6,7.2,25.6,7.5,25.7z M18.3,12.9c-1.4,1-3.1,1-4.7,1.4c-2.2,0.4-4.4,0.7-6.6,1.1
			c-0.8,0.2-1.6,0.4-2.4,0.7c-0.4,0.1-0.6,0.5-0.5,0.9c0,0,0,0,0,0c0.1,0.3,0.4,0.6,0.7,0.8c0.3,0.1,0.6,0.1,0.9,0
			c2.4-0.4,4.8-0.9,7.2-1.3c1.4-0.3,2.8-0.6,4.1-0.9c0.7-0.2,1.5-0.5,2.2-0.8L18.3,12.9l0-1.5c-0.9-0.3-1.9-0.3-2.8-0.1
			c-2.8,0.6-5.5,1.2-8.3,1.8c-0.2,0-0.3-0.1-0.7-0.3c1.3-0.7,2.7-0.3,3.7-1.3c-0.3-1.4-0.3-1.4-1.4-1.6c-0.2,0-0.4,0-0.7,0
			c0.3-0.2,0.6-0.4,1-0.5c2.2-0.4,4.4-0.9,6.6-1.3c0.6,0,1.2-0.4,1.4-0.9c0.3-0.6,0-1.4-0.6-1.7c0,0,0,0,0,0L13.7,6
			c-1.3,0.2-2.6,0.2-3.8,0.5C8,6.9,6.2,7.5,4.3,8c-0.5,0.1-1,0.5-1.2,0.9c-0.2,0.4-0.1,1,0.4,1.2c0.1,0.1,0.2,0.1,0.4,0.1
			c0.7,0,1.5,0,2.2-0.1c0.7-0.1,1.5-0.2,2.2-0.3c-0.3,0.5-0.9,0.5-1.4,0.6c-1,0.2-1.9,0.4-2.8,0.7c-0.3,0.2-0.5,0.5-0.6,0.8
			c0,0.3,0.3,0.6,0.6,0.9s0.9-0.1,1,0.6l-0.6,0.3c-0.8,0.3-1,0.5-0.9,1s0.6,0.8,1.2,0.7c0.1,0,0.1,0,0.2,0c2-0.4,3.9-0.9,5.9-1.2
			C13.4,13.7,15.9,13.3,18.3,12.9z M45.6,8.9c0.1,2.2,0.2,4.3,0.3,6.4c0,0.2,0,0.4,0.1,0.7c0.2,1.5,0.3,3,0.5,4.5
			c0.1,0.6,0.2,1.2,0.2,1.8c0.1,0.8,0.2,1.6,0.3,2.5c0,3.2,0.8,6.3,0.6,9.4c0.6,1.8,0.2,3.7,0.5,5.6c0.3,1.6,0.4,3.3,0.4,4.9
			c0,0.5,0.1,1,0.2,1.6c0.1,0.9,0.2,1.8,0.3,2.7c0,3.2,0.9,6.3,0.7,9.4c0,0.2,0,0.3,0.1,0.4c0.3,0.9,0.4,1.9,0.3,2.9
			c0,2.1,0.5,4.1,0.7,6.1c1,0.3,2,0.3,3,0c0.1-0.2,0.2-0.4,0.2-0.6c0.2-2.2,0.1-4.5-0.2-6.8c-0.2-1.3-0.2-2.7-0.3-4
			c-0.1-2-0.2-3.9-0.3-5.8c-0.1-1.2-0.2-2.4-0.2-3.6c-0.1-1.8,0-3.6-0.1-5.4s-0.3-3.9-0.4-5.8c-0.2-4.6-0.4-9.2-0.6-13.7
			c0-0.1,0-0.3,0-0.5c-0.4-2.3-0.5-4.7-0.4-7c0-1.5-0.1-3-0.2-4.5c0-1.2-0.5-2.4-1.5-3.2c-0.6-0.6-1.6-0.7-2.3,0
			c0,0-0.1,0.1-0.1,0.1C46.9,7.5,46.3,8.1,45.6,8.9L45.6,8.9z M46.7,67.7c0.7,0.2,1.3,0.4,2,0.6c0.5,0.1,1.1-0.2,1.2-0.7
			c0-0.1,0-0.2,0-0.2c0.1-0.4,0.1-0.8,0-1.1c-0.7-2.5-0.5-5.1-0.8-7.6c-0.3-2.3-0.3-4.8-0.6-7.2c-0.3-3-0.5-6-0.7-8.9
			c0-0.2,0-0.5-0.1-0.7c-0.3-1.2-0.5-2.4-0.4-3.6c0-0.6,0-1.2-0.1-1.8c-0.7-2.6-0.3-5.2-0.8-7.8c-0.3-1.6-0.2-3.4-0.5-5.1
			c-0.3-2-0.3-4.2-0.6-6.3c-0.4-2.5-0.5-5.1-0.7-7.6c0-0.4-0.1-0.7-0.3-1.1c-0.7-1-1.8-1.6-3.1-1.7c-0.3,0-0.6,0.1-0.8,0.3
			c-0.7,1.2-1.6,2.5-1.3,4c0.4,2.2,0.2,4.5,1,6.7c0.1,0.3,0.1,0.6,0.1,0.9c0.2,2,0.3,4,0.6,6c0.5,2.6,0.8,5.2,1,7.8
			c0,0.4,0.1,0.9,0.2,1.3c0.1,0.4,0.2,0.9,0.2,1.3c-0.2,2,0.5,4,0.7,6c0.4,3.6,1.2,7.2,1.5,10.9c0,0.2,0,0.5,0.1,0.7
			c0.3,1.9,0.7,3.8,0.9,5.8C45.6,61.6,46.1,64.7,46.7,67.7L46.7,67.7z M63.3,64.2L63.3,64.2c0.1,0.7,0.1,1.3,0.1,2
			c0,0.3,0.1,0.6,0.2,0.9c0.2,0.3,0.5,0.5,0.9,0.6c0.4,0.1,0.7-0.3,0.7-0.7c0.3-2.9,1.1-5.7,1.1-8.7c0-0.2,0-0.4,0.1-0.7
			c0.3-1.9,0.7-3.8,0.9-5.8c0.3-2.7,0.7-5.3,1-8c0.2-1.3,0.4-2.7,0.6-4c0.2-1.8,0.4-3.7,0.6-5.6c0.2-1.4,0.4-2.8,0.6-4.2
			c0.3-2.3,0.7-4.6,0.9-6.9s0.4-4.3,0.7-6.5c0-1.3,0.2-2.7,0.5-4c0.3-1.2,0.4-2.5,0.5-3.8c-0.1-1.5-1-2.9-2.4-3.5
			c-0.4-0.1-0.7-0.1-1.1,0c-1.7,0.7-3,2.2-3.3,4c-0.2,2.8-0.4,5.5-0.5,8.3c-0.1,1.6,0,3.2,0,4.7c0,0.6,0,1.2-0.1,1.8
			c-0.4,2.4-0.5,4.8-0.4,7.2c0.1,1.8,0.1,3.6-0.1,5.4c-0.3,2.8-0.4,5.5-0.4,8.3c0,1.3,0,2.6-0.2,3.8c-0.3,1.9-0.4,3.9-0.3,5.8
			c0.1,2.3,0,4.5-0.4,6.7C63.3,62.4,63.3,63.3,63.3,64.2L63.3,64.2z M62.4,4.3c-0.5,0.4-1,0.8-1.5,1.1c-1.5,0.6-2.3,2.3-2,3.9
			c0,0.1,0,0.3,0,0.4C59,15.4,59,21,59,26.6c0,8.8,0,17.6,0,26.4c0,4,0,8,0.1,11.9c-0.1,0.8,0,1.6,0.4,2.3c0.8,0.4,1.9,0.3,2.6-0.2
			c0.2-1.5,0.4-2.9,0.5-4.4c0.1-3-0.2-6,0.4-9c0-0.3,0-0.6,0-0.9c0-1.9,0-3.8,0.1-5.6c0.1-2.9-0.3-5.9,0.4-8.8
			c0.1-0.4,0.1-0.9,0.1-1.3c0-3.8,0-7.5,0-11.3c0-0.7,0-1.3,0.1-2c0.4-2,0.5-4,0.4-6.1c0-3,0.1-6,0.4-9c0.1-1.1,0.1-2.1,0-3.2
			L62.4,4.3z M55.4,5.2C54.5,6,53.8,6.8,53,7.5c-0.6,0.5-0.9,1.2-0.8,2c0,1.3,0.1,2.6,0.3,3.8c0.3,1.9,0.4,3.8,0.4,5.7
			c0,1.7,0,3.5,0.1,5.2c0.3,2.5,0.4,5.1,0.4,7.6c-0.1,1.2,0,2.4,0.1,3.6c0.3,2.2,0.4,4.3,0.4,6.5c-0.1,1.5,0,3,0.1,4.5
			c0.3,2,0.4,4,0.4,6.1c0,1.3,0,2.7,0.2,4c0.2,1.3,0.3,2.5,0.3,3.8c0,1.4,0,2.9,0,4.3c0,0.7,0.1,1.3,0.2,2c0.3,1.2,1,1.6,2.2,1.1
			c0.7-0.2,1.1-0.8,1.1-1.5c0-0.7,0-1.5,0-2.3c-0.4-3.1,0.3-6.2-0.3-9.2c0.5-4-0.3-8.1,0.1-12.1c0-0.1-0.1-0.3-0.1-0.4
			c-0.1-0.8-0.2-1.6-0.2-2.5c0-10.2-0.1-20.5-0.1-30.7c0-0.7,0-1.5-0.1-2.2L55.4,5.2z M37.7,9.7c-0.6-0.3-1.1-0.5-1.6-0.6
			c-1.1-0.5-2.4-0.1-2.9,1c0,0.1-0.1,0.2-0.1,0.3c-0.9,1.6-1.1,3.5-0.6,5.2c0.6,2.1,1,4.2,1.5,6.3c0.6,2.6,1.1,5.3,1.6,7.9
			c0.8,3.7,1.8,7.4,2.5,11.1c0.7,4.1,1.6,8.2,2.5,12.3c0.2,0.8,0.3,1.6,0.4,2.4c0.5,2.3,1,4.7,1.5,7c0.4,1.7,0.5,3.5,1.4,5.1
			c0.2,0.1,0.3,0.1,0.5,0.2c1.1,0.1,1.5-0.2,1.3-1.2c-0.1-0.6-0.3-1.2-0.4-1.8c-0.3-2.1-0.4-4.2-0.7-6.3c-0.4-2.4-0.7-4.7-0.9-7.1
			c0-0.2,0-0.5-0.1-0.7c-0.7-2-0.3-4.2-0.8-6.2c-0.4-1.7-0.3-3.6-0.7-5.3c-0.5-2.6-0.8-5.2-1-7.8c0-0.4-0.2-0.7-0.2-1.1
			c-0.1-0.7-0.2-1.3-0.3-2c0-0.5,0-1-0.1-1.6c-0.5-2.2-0.5-4.5-1-6.7c-0.3-1.5-0.4-3.1-0.6-4.7C38.6,13.6,38.1,11.7,37.7,9.7z
			 M77.4,6c-0.7-0.3-1.4-0.2-2,0.2c-0.4,0.4-0.8,0.9-1,1.5c-0.1,0.4-0.2,0.7-0.2,1.1c-0.2,1.5-0.4,3-0.6,4.4
			c-0.3,1.8-0.6,3.5-0.9,5.3s-0.4,3.6-0.7,5.3c-0.4,3-1,5.9-1.4,8.9c0,0.8-0.1,1.6-0.2,2.5c-0.2,0.8-0.3,1.6-0.3,2.4
			c0,0.4,0,0.7-0.1,1.1c-0.6,2.3-0.6,4.6-1,6.9c-0.3,1.7-0.5,3.4-0.8,5.1c-0.3,2-0.6,4-0.8,6c0,0.5,0,1-0.1,1.6
			c-0.8,3.1-0.7,6.3-1.4,9.3c0,0.2,0.1,0.4,0.2,0.7l1.8,0.6c0.8-1.2,0.8-1.2,0.9-2.1c0.2-1.7,0.4-3.4,0.7-5.1s0.6-3.1,0.8-4.6
			c0.3-1.8,0.5-3.7,0.8-5.5s0.7-3.7,0.9-5.5c0.3-2.6,0.9-5.2,1.1-7.8c0.2-2.4,0.9-4.7,0.9-7.1c0-0.3,0.1-0.6,0.1-0.9
			c0.5-2.1,0.8-4.3,1.1-6.4c0.1-1.3,0.3-2.7,0.4-4c0.2-1.6,0.6-3.2,0.9-4.8s0.4-3,0.6-4.4c0-0.9,0.1-1.8,0.4-2.7
			C77.8,7.3,77.8,6.6,77.4,6z M29.1,59.2c-0.5-1.3-0.7-1.5-1.5-1.3c-1.2,0.3-2.3,0.6-3.5,0.8c-2,0.4-4.1,0.8-6.1,1.3
			c-1.3,0.3-2.6,0.6-3.9,1c-0.4,0.1-0.6,0.5-0.5,0.8c0,0.2,0.1,0.3,0.3,0.4c0.2,0.3,0.6,0.5,0.9,0.5c0.7,0,1.3,0,2-0.2
			c2.9-0.6,5.8-1.2,8.7-2C26.7,60.2,28,60.2,29.1,59.2z M30.3,65.3c-0.1,0-0.3-0.1-0.4-0.1c-3.3,0.7-6.5,1.5-9.9,2
			c-1.5,0.3-2.9,0.6-4.3,1.1c-0.5,0-0.8,0.4-0.8,0.9s0.4,0.8,0.9,0.8l0,0c0.7,0.1,1.5,0,2.2-0.1c1.8-0.4,3.6-0.9,5.4-1.3l7.5-2
			L30.3,65.3z M20.7,57.6c-0.8-0.2-1.7-0.2-2.5-0.2c-1.5,0.2-2.9,0.6-4.4,1C13.4,58.4,13,58.6,13,59c0,0.3,0.2,0.6,0.4,0.7
			c0.4,0.2,0.8,0.4,1.2,0.4c1.2-0.2,2.3-0.5,3.5-0.7l8.7-2c0.4-0.1,0.7-0.3,1.1-0.4c0.4-0.2,0.7-0.5,0.4-0.9
			c-0.2-0.2-0.5-0.3-0.8-0.3c-0.7,0.1-1.5,0.3-2.2,0.4C23.8,56.3,22.1,56.8,20.7,57.6L20.7,57.6z M32.2,76.6
			c-2.3-0.4-4.4,0.1-6.5,0.4c-0.7,0.2-1.5,0.2-2.1-0.1c-0.2-0.1-0.4-0.1-0.6-0.1c-0.9,0.1-1.8,0.3-2.6,0.5c-0.8,0.2-1.6,0.4-2.3,0.7
			c-0.5,0.2-0.8,0.8-0.6,1.3c0.1,0.5,0.7,0.8,1.2,0.7c1.8-0.3,3.5-0.6,5.2-1.1c2.5-0.9,5.2-1.4,7.8-2C31.7,76.8,31.9,76.7,32.2,76.6
			L32.2,76.6z M5.1,20.3c2.1,0.4,4-0.4,5.8-0.9c0.5-0.2,0.8-0.7,0.7-1.2c0,0,0,0,0-0.1c-0.1-0.5-0.5-0.7-1.3-0.6
			c-1.7,0.3-3.4,0.7-5,1.1c-0.1,0-0.2,0.2-0.5,0.4L5.1,20.3z M17.4,48.1c0-0.4-0.4-0.8-0.8-0.8c-0.1,0-0.1,0-0.2,0
			c-0.9,0.2-1.8,0.3-2.6,0.5c-0.7,0.2-1.4,0.4-2.1,0.7c-0.4,0.1-0.7,0.6-0.6,1.1c0.1,0.5,0.6,0.9,1.1,0.9c0,0,0,0,0,0
			c1.4-0.3,2.8-0.6,4.2-0.9C16.9,49.4,17.4,48.8,17.4,48.1z M79.1,46.8c-0.6-0.1-1.2,0.2-1.4,0.7c-0.4,0.6-0.4,1.3,0,1.9
			c0.1,0.1,0.2,0.2,0.4,0.2c0.6,0,1.1-0.6,1.2-1.4C79.3,47.7,79.2,47.3,79.1,46.8L79.1,46.8z M73.9,45.7c2-0.5,2.3-0.8,2-2.8
			C74.3,43.4,74.1,43.7,73.9,45.7L73.9,45.7z M81.7,20c1.8-0.4,1.8-0.4,1.6-2.8c-0.3,0.1-0.7,0.2-0.9,0.4
			C81.8,18.2,81.5,19.1,81.7,20z M73.6,49.3c0.5-0.2,0.9-0.5,1.3-0.9c0.3-0.5,0.5-1,0.7-1.6c0-0.1-0.1-0.3-0.2-0.3
			c-0.2-0.1-0.4-0.1-0.6-0.1c-0.7,0.3-1.3,1-1.4,1.9C73.4,48.6,73.5,49,73.6,49.3z M82.3,26.9c-0.8,0.5-1.4,0.6-1.6,1
			c-0.3,0.6-0.9,1.2-0.4,2.1C81.8,29.6,82.1,28.6,82.3,26.9L82.3,26.9z M76.8,26.7c0.9-0.2,1.7-0.9,2-1.7c0.1-0.2,0.1-0.4,0-0.6
			c-0.1-0.4-0.4-0.6-0.8-0.5c-0.1,0-0.1,0-0.2,0.1c-0.3,0.2-0.5,0.5-0.7,0.8c-0.1,0.2-0.1,0.4-0.1,0.6
			C76.9,25.7,76.8,26.1,76.8,26.7L76.8,26.7z M76.6,39.9c-0.9-0.3-1.2-0.3-1.7,0.4s-0.7,1.1-0.1,2.1C76,42.1,76.3,41,76.6,39.9
			L76.6,39.9z M77,36.3c-0.9,0.1-1.7,0.7-2,1.5c-0.1,0.4,0,0.7,0.3,1c0.3,0.3,0.7,0.1,1-0.2C76.8,38.2,76.8,37.5,77,36.3L77,36.3z
			 M83,20.5c-1,0.6-1.7,1-1.9,2.1c0,0.4,0.3,0.7,0.7,0.7c0.1,0,0.1,0,0.2,0c0.3-0.1,0.5-0.2,0.7-0.5C83.1,22.2,83.2,21.3,83,20.5z
			 M79.7,35.9c1.1-0.1,1.5-0.8,1.6-1.8c0-0.2-0.1-0.4-0.2-0.6c-0.2-0.1-0.4-0.1-0.6,0C79.6,34,79.5,34.2,79.7,35.9L79.7,35.9z
			 M78.9,42.4c0.1,0,0.2,0.1,0.2,0c0.9-0.3,1.4-1.2,1.1-2.1c-0.1-0.2-0.3-0.3-0.5-0.3c-0.8,0.2-1.4,1-1.2,1.8c0,0.1,0,0.2,0.1,0.2
			C78.6,42.2,78.8,42.3,78.9,42.4L78.9,42.4z M76.8,56.5c1.4-0.6,1.6-0.8,1.4-1.8c0-0.3-0.3-0.6-0.7-0.6c-0.1,0-0.2,0.1-0.3,0.1
			C76.4,54.8,76.3,55.2,76.8,56.5L76.8,56.5z M79,20.3c-0.3,0.1-0.5,0.1-0.6,0.1c-0.3,0.3-0.6,0.6-0.9,1c-0.3,0.4-0.2,0.9,0.1,1.2
			c0.3,0.3,1,0.1,1.3-0.4C79.4,21.7,79.4,20.9,79,20.3L79,20.3z M77,33.3c-0.8,0.3-1.5,1-1.6,1.8c0,0.2,0.1,0.4,0.2,0.6
			c0.2,0.1,0.4,0.1,0.6,0C77.3,35.3,77.4,34.5,77,33.3z M74.3,53.9c-0.8-0.1-1.5,0.4-1.8,1.1c-0.2,0.4-0.3,0.8,0.2,1.3
			C74,56.1,74.3,55.2,74.3,53.9z M77.8,27c-1,0.7-1.7,1.3-1.2,2.4C78.4,28.9,78.5,28.8,77.8,27z M77.4,30.1
			c-1.5,1.1-1.5,1.1-1.3,2.3C77.8,32,77.9,31.8,77.4,30.1L77.4,30.1z M79.7,43.1c-1.1,0.4-1.6,0.8-1.7,1.7c0,0.2,0.1,0.4,0.2,0.6
			c0.1,0.1,0.3,0.2,0.4,0.1c0.4-0.3,0.8-0.7,1.1-1.1C79.8,44.2,79.7,43.8,79.7,43.1L79.7,43.1z M78.4,50.6c-0.7,0.2-1.3,0.8-1.5,1.5
			c-0.1,0.3-0.1,0.8,0.4,0.9C78.9,52,78.9,51.9,78.4,50.6z M81.9,30.6c-0.3-0.1-0.5-0.3-0.7-0.2c-0.7,0.3-1.2,0.9-1.3,1.6
			c0,0.2,0.1,0.4,0.3,0.5c0.1,0.1,0.3,0,0.4,0C81.3,32.2,81.8,31.5,81.9,30.6L81.9,30.6z M80.8,37.3c-0.1-0.1-0.2-0.3-0.4-0.3
			c-0.5-0.1-1,0.2-1.2,0.8c-0.1,0.3-0.1,0.7,0,1c0,0.1,0.2,0.2,0.3,0.2C80.3,38.7,80.8,38,80.8,37.3z M82.4,24.2
			c-0.4,0.2-0.8,0.4-1.2,0.6c-0.5,0.2-0.7,0.8-0.5,1.3c0,0,0,0,0,0c0.1,0.1,0.2,0.2,0.4,0.2c0.5,0.1,1-0.3,1.2-0.8
			C82.4,25.1,82.4,24.7,82.4,24.2z M73.8,56.8c-0.9,0.6-1.6,1-1.7,1.8c0,0.3,0.1,0.5,0.3,0.8c0.1,0.1,0.5,0,0.6-0.1
			C73.6,58.6,74,57.7,73.8,56.8z M77.6,41.8c-0.9,0.4-1.2,0.9-1,1.6c0.1,0.1,0.2,0.2,0.3,0.3c0.2,0,0.5,0,0.6-0.2
			C77.9,43,77.9,42.4,77.6,41.8L77.6,41.8z M75.2,54.6c0.2-0.1,0.6-0.2,0.7-0.4c0.5-0.6,0.7-1.3,0.6-2.1
			C75.1,52.5,75.1,53.5,75.2,54.6z M77.8,37.2c0.1,0,0.3,0,0.4-0.1c0.5-0.3,0.7-0.8,0.5-1.3c-0.1-0.2-0.3-0.5-0.4-0.4
			s-0.6,0.2-0.7,0.3c-0.1,0.4-0.2,0.8-0.2,1.3C77.6,37,77.7,37.1,77.8,37.2L77.8,37.2z M77.7,38.4c-0.3,0.4-0.5,0.9-0.7,1.3
			c-0.1,0.2,0.1,0.5,0.2,0.8c0.3-0.1,0.6-0.2,0.7-0.4C78.4,39.6,78.5,39,77.7,38.4z M76.2,55.6c-0.4,0-0.8,0-0.9,0.1
			c-0.3,0.3-0.4,0.6-0.5,0.9c-0.1,0.4-0.2,0.9,0.2,1.2c0.2,0.2,0.6-0.3,0.8-0.8S76,56.2,76.2,55.6z M76.4,47.2c0.1,0,0.3,0,0.4-0.1
			c0.5-0.5,0.7-1.4,0.4-1.7c-0.1-0.1-0.2-0.1-0.4-0.1c-0.6,0.3-0.9,1-0.7,1.7C76.1,47,76.3,47.1,76.4,47.2z M79.5,33.1
			c-0.3-0.4-0.5-0.7-0.7-0.9S78,32.6,78,33.1s0.3,0.8,0.7,0.7S79.1,33.4,79.5,33.1z M80.9,19c-0.6-0.1-0.8,0.2-0.9,0.6
			s-0.3,1,0.3,1.4c0.3,0.2,0.6-0.3,0.7-1.2C81,19.6,81,19.3,80.9,19z M79.9,29.6c-0.2-0.3-0.3-0.6-0.4-0.6c-0.3,0-0.5,0.1-0.7,0.2
			c-0.3,0.3-0.3,0.8,0,1.2c0,0,0,0,0,0c0.1,0.1,0.3,0.2,0.4,0.1C79.4,30.2,79.6,29.9,79.9,29.6z M79.6,27.6c0.2-0.4,0.4-0.8,0.6-1.2
			c0-0.1-0.2-0.4-0.3-0.5c-0.2,0-0.4,0-0.6,0.1C78.9,26.4,78.8,26.9,79.6,27.6L79.6,27.6z M80.4,22.3c-0.3,0.3-0.6,0.4-0.7,0.7
			c-0.1,0.4,0,0.7,0.1,1c0,0,0.4,0.1,0.5,0C80.7,23.6,80.8,22.8,80.4,22.3L80.4,22.3z M33.8,58.3c-0.3,0.4-0.5,0.7-0.5,0.9
			s0.3,0.6,0.5,0.6s0.6-0.3,0.6-0.5C34.4,59,34.2,58.7,33.8,58.3L33.8,58.3z M40.4,59.9h-0.5c0,0.4-0.1,0.8-0.1,1.2
			c0,0.1,0.2,0.2,0.3,0.2s0.3-0.1,0.3-0.2C40.4,60.6,40.4,60.2,40.4,59.9L40.4,59.9z M85,30.6c-0.1-0.1-0.1-0.3-0.2-0.4
			s-0.3,0-0.4,0.1l0.2,0.5L85,30.6z M22.8,12c0.3-0.5,0.5-0.7,0.5-0.9c0-0.2-0.1-0.4-0.3-0.5c-0.2-0.1-0.5,0-0.6,0.3
			c0,0.1,0,0.1,0,0.2C22.5,11.3,22.6,11.7,22.8,12z M36.5,57.9c-0.2,0.2-0.3,0.3-0.4,0.5c0,0.1,0.2,0.3,0.2,0.3s0.4-0.1,0.5-0.3
			S36.6,58.2,36.5,57.9z M25.7,23c0.1-0.2,0.3-0.4,0.3-0.5c0-0.2-0.2-0.3-0.4-0.4c-0.3,0-0.5,0.2-0.4,0.5
			C25.3,22.7,25.5,22.8,25.7,23z M32.7,53.8l-0.5-0.5c-0.1,0.2-0.4,0.3-0.4,0.5s0.2,0.4,0.4,0.4S32.5,54,32.7,53.8L32.7,53.8z
			 M35.8,65.8l-0.5-0.3c-0.1,0.1-0.2,0.3-0.2,0.3c0.1,0.1,0.3,0.2,0.4,0.3L35.8,65.8z M78.3,71.8l0.2,0.1c0-0.1,0.1-0.1,0.1-0.2
			s-0.1-0.1-0.2-0.1L78.3,71.8z M35.2,69.4l0.4-0.2c-0.1-0.2-0.2-0.3-0.3-0.5c0,0-0.3,0.2-0.3,0.2C35,69,35.1,69.2,35.2,69.4
			L35.2,69.4z M29.9,45.9l0.1,0.4c0.1,0,0.3-0.1,0.3-0.2s-0.1-0.3-0.1-0.4L29.9,45.9z M85.4,23.1c0.1,0.1,0.1,0.3,0.2,0.3
			s0.2-0.1,0.3-0.1l-0.2-0.5L85.4,23.1z M25.8,13.4c0.1,0,0.3-0.1,0.4-0.2s-0.1-0.2-0.1-0.4l-0.4,0.2L25.8,13.4z M32.3,42
			c0-0.1,0.1-0.1,0.1-0.2s-0.1-0.1-0.2-0.1L32.1,42L32.3,42z M79.4,10.5c0.1,0.1,0.2,0.1,0.3,0.2c0,0,0.1-0.1,0.1-0.1
			c-0.1-0.1-0.2-0.1-0.3-0.2C79.5,10.4,79.5,10.4,79.4,10.5L79.4,10.5z M38.1,50c-0.1-0.1-0.1-0.2-0.2-0.3s-0.1,0-0.1,0.1
			c0,0.1,0,0.2,0,0.3L38.1,50z M28.9,40v-0.2c-0.1,0-0.1,0-0.2,0V40C28.8,40,28.9,40,28.9,40z M34.3,56.8c0.1-0.1,0.1-0.2,0.2-0.3
			c0,0-0.1-0.1-0.2-0.1s-0.2,0.1-0.2,0.1C34.2,56.6,34.3,56.7,34.3,56.8L34.3,56.8z M24,16.6l0-0.2c0,0-0.1,0-0.2,0
			c0,0.1,0,0.1,0,0.2C23.9,16.6,23.9,16.6,24,16.6z M88.3,13.2l-0.2,0.1l0.2,0.1V13.2z M26.5,11.1l0.2-0.1c0,0-0.1-0.1-0.1-0.1
			s-0.1,0.1-0.2,0.1L26.5,11.1z M32,34.9c0,0,0,0.1,0,0.2s0.1,0,0.2,0v-0.3L32,34.9z M86.2,19.6c-0.1,0.1-0.1,0.3-0.1,0.4
			c0,0,0.1,0.1,0.2,0.1s0.2-0.2,0.2-0.3S86.3,19.7,86.2,19.6L86.2,19.6z M27.7,24.3l-0.3-0.2c0,0.1-0.1,0.2-0.1,0.3s0.2,0.1,0.2,0.2
			L27.7,24.3z M33.5,27.2l-0.2-0.1l0.1,0.2L33.5,27.2z"/>
		<path d="M7.4,23c0.8-0.7,1.9-0.5,2.8-0.5C9.4,23.3,8.4,23,7.4,23z"/>
		<path d="M20.6,74.4c-0.5,0.7-1.2,0.6-1.9,0.5C19.2,74.4,19.9,74.2,20.6,74.4z"/>
		<path d="M13.4,45.1c-0.7,0.7-1.5,0.5-2.4,0.5C11.6,44.9,12.6,44.7,13.4,45.1z"/>
		<path d="M13.7,42.4c0.5-0.5,1.2-0.7,1.9-0.5C15.2,42.5,14.4,42.7,13.7,42.4z"/>
	</g>
</g>
</svg>
