<?xml version="1.0" encoding="utf-8"?>
<!-- Generator: Adobe Illustrator 23.0.3, SVG Export Plug-In . SVG Version: 6.00 Build 0)  -->
<svg version="1.1" id="Calque_1" xmlns="http://www.w3.org/2000/svg" xmlns:xlink="http://www.w3.org/1999/xlink" x="0px" y="0px"
	 viewBox="0 0 42.2 89.8" style="enable-background:new 0 0 42.2 89.8;" xml:space="preserve">
<title>Harp</title>
<g>
	<g>
		<path d="M8.7,26.5c1.2-0.6,2.1-1.7,2.3-3c0.5-1.5,1-2.9,1.7-4.3c1-1.9,2-3.8,3.2-5.6c0.9-1.3,2-2.5,3.2-3.5
			c0.4-0.4,0.8-0.8,1.2-1.1c1.7-1.5,3.7-2.5,5.9-3c1-0.3,2.1-0.3,3.2-0.2c1.1,0.2,2.3,0.6,3.4,0.9c0.7-0.5,0.8-1.1,0.2-1.8
			c-0.3-0.3-0.6-0.5-0.9-0.8c-0.4-0.4-0.5-1-0.3-1.4C32,2.3,32,1.8,32,1.3c-0.1-0.4,0.2-0.9,0.6-1c0,0,0.1,0,0.1,0
			C33.5,0.1,34.2,0,35,0c1,0,2,0.1,3,0.5c0.5,0.2,0.7,0.5,0.5,1.1c-0.2,0.4-0.2,0.8,0,1.2c0.3,0.6,0.1,1.4-0.4,1.8
			c-0.4,0.5-0.7,1.2-0.7,1.8c-0.4,3-0.1,6-0.3,9c-0.1,1.8-0.2,3.7-0.2,5.5c0,1.8,0,3.6,0,5.4c0,0.2,0,0.4,0,0.6
			c-0.4,3.4-0.5,6.7-0.4,10.1c0,1.5,0,3.1,0,4.6c0,0.7-0.1,1.3-0.2,2c-0.1,2.4-0.1,4.8-0.1,7.2c0,1.6,0,3.3,0,4.9
			c0.1,0.8,0,1.6-0.3,2.4c-0.1,0.3-0.1,0.6-0.1,0.9c0,3.5-0.1,7-0.2,10.6c0,2.1-0.1,4.2-0.2,6.3c0,0.3,0,0.6,0,1
			c0.5,0.3,1,0.6,1.5,0.8c0.9,0.4,1.5,1.3,1.4,2.3c-0.1,0.8,0.3,1.6,1,2c0.7,0.5,1.3,1.1,1.9,1.8c0.5,0.5,0.8,1.2,0.9,1.9
			c0.3,1.2-0.5,2.3-1.7,2.6c-0.1,0-0.3,0-0.4,0.1c-0.4,0-0.8,0-1.2,0c-1.6-0.1-3.1-0.3-4.7-0.7c-0.4-0.1-0.7-0.1-1.1-0.1
			c-2.4-0.1-4.9,0.2-7.2,0.9c-1.3,0.5-2.6,0.9-4,1.1c-0.3,0-0.6,0.1-0.9,0.1c-1.8,0.2-3.5-1-4-2.7c-0.2-0.5-0.2-1,0-1.5
			c0.5-1.8,1.7-3.4,3.3-4.5c0.8-0.4,1.5-0.9,2.2-1.5c-0.4-1.1-0.7-2.1-1.1-3.1c-1.3-3.1-2.6-6.1-3.9-9.2l-2.9-6.9
			c-0.5-1.2-1-2.3-1.5-3.5L9,47.6c-1.1-2.5-2.2-5-3.3-7.6C4.8,37.9,4,35.7,3,33.5c-0.5-1.2-1.1-2.3-1.6-3.5
			c-0.7-1.4-1.1-2.9-1.4-4.5c-0.1-1.2,0.7-2.3,1.9-2.4c0.4-0.1,0.8,0,1.2,0.2c0.5,0.2,1,0.5,1.5,0.8C5.4,25,6.4,25.6,7.4,26
			C7.8,26.1,8.3,26.3,8.7,26.5z M22,54.1L22,54.1c-0.4,1.1,0,2.4,0.8,3.2c0.5-0.8,0.5-0.8,0.5-1.3c0-0.9,0.1-1.8,0.1-2.8
			c0-3.2,0.1-6.3,0.2-9.5s0.2-6.1,0.3-9.2c0-1.4,0.1-2.7,0.2-4.3c0.1,0.2,0.2,0.3,0.2,0.4c-0.1,2.4-0.1,4.7-0.2,7
			c0,1.2-0.1,2.4-0.1,3.7c0.1,3.3,0,6.7-0.3,10c-0.1,0.6-0.1,1.1-0.1,1.7c0,1.6,0,3.2,0,4.8c0,0.3,0,0.5,0,0.8
			c0.2,0.6,0.4,1.1,1.2,1.3c0-1,0-1.8,0-2.7c0-0.7,0-1.3,0.1-2c0-0.9,0.2-1.7,0.2-2.6c0.1-3.4,0.1-6.7,0.2-10.1
			c0-1.4,0.1-2.9,0.2-4.3c0.1-2.5,0.1-4.9,0.2-7.4c0.1-4.1,0.3-8.2,0.4-12.3c0-0.3,0-0.7-0.1-1c-1.1-0.2-1.2-0.2-1.3,0.6
			c-0.1,0.5-0.1,1-0.1,1.5c-0.1,1.5-0.1,3.1-0.2,4.6h-0.1l-0.1-6.8L23,18c-0.1,1.8-0.3,3.5-0.3,5.1c-0.1,1.9-0.1,3.8-0.1,5.7
			c0,3.4-0.2,6.7-0.4,10c-0.1-1.7-0.1-3.5,0-5.2c0.1-2,0.3-4.1,0.3-6.1c0-1.5,0-3,0-4.5c0-0.9,0.2-1.8,0.2-2.7c0-0.6,0-1.2,0-1.8
			c0-0.4-0.5-0.5-0.8-0.3c-0.3,0.1-0.5,0.4-0.5,0.7c0,0.6-0.1,1.1-0.1,1.7c0,2.2,0,4.4,0,6.6c0,0.3,0,0.6-0.1,1
			c-0.2-0.3-0.2-0.6-0.2-0.9c0-2.3,0-4.5,0.1-6.8c0-0.4,0-0.7,0-1.1c0-0.1-0.1-0.3-0.3-0.3c-0.2,0-0.4,0-0.5,0.1
			c-0.2,0.2-0.4,0.5-0.4,0.8c-0.2,1.6-0.3,3.3-0.4,4.9c0,0.8,0,1.6,0,2.5c0,2.7,0,5.3,0,8c0,2.3-0.2,4.5-0.2,6.7
			c-0.1,3.1-0.1,6.1-0.2,9.2c0,0.7,0.3,1.1,1.2,1.4c0.1-0.7,0.2-1.3,0.3-2c0-0.9,0-1.7,0-2.6c0-1.9,0-3.9,0.1-5.8
			c0.2-1.7,0.2-3.5,0.2-5.2c0-2.1,0-4.2,0-6.5c0.3,0.3,0.4,0.8,0.3,1.2c-0.1,1.6-0.1,3.2-0.2,4.8c0,2,0,4,0,6c0,0.7,0,1.3-0.1,2
			c-0.2,3-0.3,5.9-0.2,8.9c0,0.6,0.3,1.2,0.8,1.5L22,54.1z M31.3,69.7c0.1-1.4,0.3-2.8,0.3-4.2c0.1-3.4,0-6.8,0.1-10.3
			c0-0.7,0-1.4,0.1-2.1C32,51.5,32,50,32,48.4c0.1-3.8,0.1-7.6,0.2-11.3c0-1.8,0.2-3.6,0.2-5.4c0-1.6,0-3.2,0-4.8
			c0-0.4,0.1-0.8,0.1-1.2c0.1-1.8,0.2-3.6,0.3-5.4c0-0.3,0-0.6-0.2-0.9c-0.1-0.3-0.3-0.6-0.8-0.5c-0.3,0.4-0.2,0.9-0.2,1.3
			c0,1.9,0.1,3.8-0.1,5.7c-0.2,2.1-0.2,4.2-0.2,6.3c-0.1,3.8-0.2,7.5-0.3,11.3c-0.2-0.1-0.3-0.3-0.3-0.5c0-2.3,0.1-4.7,0.1-7
			c0-2.1,0.2-4.3,0.2-6.4c0-2.4,0-4.7,0.3-7c0.1-1.2,0.1-2.3,0-3.5c0-0.7-0.1-0.7-1.1-0.9c-0.1,0.1-0.1,0.2-0.1,0.3
			c-0.1,2-0.3,4-0.3,6c-0.1,4.5-0.1,9-0.3,13.5s0.1,8.8-0.3,13.2c-0.2,3-0.1,5.9-0.2,8.9c0,1.8-0.1,3.6-0.1,5.4c0,0.4,0,0.7,0,1.1
			c0,0.6,0.4,1.1,0.9,1.3c0.7-7,0.4-13.9,0.9-20.8c0.2,2.4,0.2,4.8,0.1,7.3c-0.1,1.6-0.2,3.2-0.3,4.7c0,2.9,0,5.8,0,8.7
			c0,0.5,0,0.9,0.1,1.4C30.5,69.3,30.9,69.6,31.3,69.7z M26.6,62.8c0.1-1.5,0.1-2.7,0.1-3.9s0.1-2.3,0.1-3.5c0-1,0.2-1.9,0.2-2.9
			c0.1-3.1,0.1-6.1,0.1-9.2c0-1.7,0.1-3.4,0.2-5s0-3.4,0.1-5.1c0-1.5,0.2-3,0.3-4.4c0.1-3.6-0.1-7.3,0.2-10.9c0-0.1,0-0.3,0-0.5
			c-0.1-0.1-0.1-0.2-0.2-0.3l-0.9,0.1c-0.3,0.4-0.4,0.9-0.3,1.4c-0.1,2-0.1,4.1-0.2,6.1c0,1.2-0.1,2.5-0.1,3.7c0,1.8,0,3.6,0,5.4
			c0,0.4,0,0.7-0.1,1.1c-0.1,1.4-0.3,2.8-0.3,4.1c-0.1,4.2,0.1,8.5-0.2,12.7c-0.2,2.8-0.1,5.7-0.1,8.6c0,0.3,0,0.6,0.1,0.9
			C25.7,61.8,26,62.4,26.6,62.8z M28.4,17.3c0,0.4-0.1,0.8-0.1,1.2c0,1.5,0,3-0.1,4.4c-0.2,2.7-0.3,5.4-0.2,8.1c0,1.7,0,3.5,0,5.2
			c0,0.5-0.1,0.9-0.1,1.4s-0.1,1.1-0.1,1.7c-0.1,3.7,0.1,7.3-0.3,11c-0.2,1.6,0,3.3-0.1,4.9c-0.1,2.7,0.1,5.4-0.2,8.1
			c-0.1,0.8,0.3,1.5,1,1.7c0.2-0.9,0.3-1.8,0.3-2.7c0-2.7,0-5.3,0.1-8c0-1.1,0.2-2.2,0.3-3.3c0.1-1.8,0-3.7,0.1-5.5
			c-0.1-1.8,0-3.7,0.3-5.5c0.1-0.4,0.1-0.8,0-1.2c0-2.5,0-4.9,0-7.4c0-0.8,0-1.5,0.1-2.3c0.4-3.5,0.2-6.9,0.3-10.4
			c0-0.2,0-0.3,0-0.5C29.5,17.5,29.4,17.4,28.4,17.3z M18.3,50.2c0.2-0.6,0.3-1.3,0.2-2c0-1.5,0-3,0.1-4.5s0.2-2.9,0.2-4.3
			c0.1-2.6,0.2-5.2,0.2-7.8c0.1-3.5,0.1-7,0.2-10.4c0-0.3,0.1-0.7-0.4-0.9c-0.6,0.3-0.9,0.9-0.8,1.5c0,1.2,0,2.3-0.1,3.5
			c-0.1,2.6-0.3,5.2-0.3,7.8c0,3.6,0,7.3-0.3,10.9c-0.1,1.5,0,3,0,4.5C17.3,49.2,17.7,49.8,18.3,50.2z M16.5,47.6
			c0.1-0.2,0.2-0.4,0.3-0.6c0.1-0.7,0.2-1.3,0.2-2c0.1-3.4,0.2-6.7,0.3-10.1c0-1.7,0.1-3.4,0.1-5.1c0-2.3,0.1-4.7,0.1-7.1
			c0-0.2-0.1-0.5-0.2-0.7c-0.7,0.6-1,1.4-1.1,2.2c0,1.3-0.1,2.6-0.2,4c-0.3,5.7,0,11.5-0.5,17.2C15.5,46.3,15.8,47.1,16.5,47.6z
			 M15.7,25.3c-0.2,0.1-0.4,0.1-0.4,0.2c-0.6,1.2-0.9,2.5-0.9,3.8c0.1,3.5,0,6.9-0.3,10.4c-0.1,1.2-0.1,2.5,0,3.7
			c-0.1,0.8,0.3,1.5,1.1,1.9c0.1-0.2,0.1-0.5,0.2-0.7c0-0.7,0-1.3,0.1-2c0-1.7,0.1-3.4,0.1-5c0-1.1,0.2-2.1,0.2-3.2
			c0-2.8-0.1-5.6,0.1-8.4C15.9,25.6,15.8,25.4,15.7,25.3z M14,28.7c-0.9,0.2-1,0.3-1,0.7s0,0.8,0,1.2c-0.1,2.6-0.2,5.1-0.3,7.6
			c0,1,0,2,0,3.1c0,0.6,0.3,1.2,0.9,1.4c0.1-0.4,0.2-0.8,0.3-1.2c0.1-1.3,0.1-2.7,0.1-4c0-2.1,0-4.3,0.2-6.4
			C14.3,30.3,14.2,29.5,14,28.7z M10.8,38.5c0.1-0.3,0.1-0.5,0.2-0.8c0-2.2,0.1-4.4,0.1-6.6c0-0.3,0-0.5-0.1-0.8
			c-0.1-0.2-0.2-0.3-0.4-0.3c-0.2,0-0.3,0.1-0.4,0.3c-0.3,2.3-0.4,4.6-0.4,6.8C9.9,37.8,10.3,38.3,10.8,38.5L10.8,38.5z M12,40.5
			c0.3-0.6,0.4-1.4,0.4-2.1c0.1-2.6,0.1-5.3,0.2-7.9c0-0.1,0-0.3,0-0.5c-0.1-0.2-0.2-0.3-0.4-0.4c-0.2-0.1-0.5,0.1-0.5,0.3
			c0,0,0,0.1,0,0.1c-0.1,0.3-0.1,0.6-0.1,0.9c0,1.9,0,3.8-0.2,5.6c-0.1,0.8-0.1,1.6-0.1,2.5C11.2,39.6,11.5,40.2,12,40.5L12,40.5z
			 M9.4,36.3c0.1-0.2,0.2-0.5,0.2-0.7c0-1.8,0-3.7,0.1-5.5c0-0.2,0-0.4-0.1-0.6c-0.1-0.1-0.2-0.2-0.4-0.2c-0.1,0-0.3,0.1-0.4,0.2
			c-0.1,0.2-0.1,0.4-0.1,0.6c-0.1,1.3-0.1,2.6-0.1,3.8c0,0.6,0.1,1.2,0.2,1.8C8.8,35.9,9,36,9.4,36.3z M7.5,28.7
			c-0.5,1.4-0.2,2.9-0.4,4.3c-0.1,0.3,0.3,0.7,0.5,1c0,0.1,0.3,0,0.5,0.1c0.1-1.6,0.2-3.2,0.1-4.8c0-0.1-0.1-0.3-0.2-0.4
			C7.8,28.8,7.7,28.7,7.5,28.7z M6.4,31.9c0.4-1.1,0.5-2.3,0.2-3.4c0,0-0.2-0.1-0.3-0.1C6,29.5,6.1,30.7,6.4,31.9z M5.4,28.1
			c-0.8,0.1-0.6,0.6-0.6,1.1s0,1,0.7,1.2C5.7,29.6,5.7,28.8,5.4,28.1L5.4,28.1z M34.6,66.2c-0.3,0.5-0.3,0.8,0,1.2
			C35,66.9,35,66.9,34.6,66.2z M10.2,43.7c-0.1-0.8-0.1-0.8-0.7-0.8L10.2,43.7z M35.7,18.8c0.2-0.3,0.4-0.4,0.4-0.5
			s-0.2-0.3-0.3-0.4c-0.1,0.1-0.3,0.2-0.4,0.4S35.6,18.5,35.7,18.8z M27,67.8l-0.3-0.2c0,0.1-0.1,0.2-0.1,0.2s0.1,0.1,0.2,0.2
			L27,67.8z M33.1,64.7l-0.3-0.3c-0.1,0.1-0.2,0.2-0.2,0.3s0.2,0.4,0.3,0.3C33,65,33.1,64.9,33.1,64.7L33.1,64.7z M35.6,24.2
			c-0.1,0.2-0.3,0.3-0.2,0.4s0.2,0.2,0.3,0.3c0.1-0.1,0.2-0.2,0.2-0.3S35.8,24.4,35.6,24.2L35.6,24.2z M15.8,49.8
			c-0.1,0.2-0.2,0.3-0.2,0.4c0,0.1,0.1,0.2,0.3,0.3c0.1,0,0.3-0.2,0.3-0.2C16,50.2,15.9,50,15.8,49.8z M34.3,48.8
			C34.1,49,34,49.1,34,49.2s0.2,0.2,0.2,0.3c0.1-0.1,0.2-0.2,0.2-0.3S34.3,49,34.3,48.8L34.3,48.8z M18.9,67.9
			c-0.1-0.1-0.2-0.2-0.3-0.3c0,0-0.2,0.1-0.2,0.2c0,0.1,0.1,0.2,0.1,0.4L18.9,67.9z M23.4,70.2c-0.1-0.1-0.3-0.2-0.4-0.2
			c0,0-0.1,0.2-0.1,0.2c0.1,0.1,0.2,0.2,0.3,0.3L23.4,70.2z M35.3,37.1c0.1-0.1,0.2-0.2,0.2-0.3c0,0-0.1-0.2-0.2-0.2
			c-0.1,0.1-0.2,0.1-0.3,0.2L35.3,37.1z M15.5,20.5c0.1,0.1,0.1,0.3,0.2,0.3c0.3,0.1,0.4-0.1,0.4-0.3c0-0.2-0.1-0.2-0.1-0.3
			L15.5,20.5z M39.1,83.6c-0.2-0.1-0.4-0.2-0.5-0.2c-0.2,0-0.3,0.1-0.3,0.3c0,0,0,0.1,0,0.1c0,0.1,0.2,0.2,0.3,0.2
			C38.8,83.9,39,83.7,39.1,83.6z M34.2,24.5c-0.1-0.1-0.2-0.3-0.2-0.3c-0.3,0-0.3,0.2-0.3,0.4s0.2,0.2,0.3,0.3L34.2,24.5z
			 M31.3,10.9c-0.3-0.1-0.4-0.2-0.5-0.2c-0.1,0.1-0.2,0.3-0.2,0.4c0,0,0.2,0.1,0.2,0.1C30.9,11.1,31.1,11,31.3,10.9z M35.6,41.6
			c0-0.1-0.1-0.2-0.1-0.3c-0.1,0-0.2,0.1-0.3,0.1c0,0.1,0.1,0.2,0.1,0.2C35.3,41.7,35.5,41.7,35.6,41.6z M13,45.5
			c0.2,0.1,0.4,0.2,0.6,0.3c0,0,0.1-0.2,0.1-0.2c0-0.1-0.1-0.2-0.2-0.3C13.4,45.3,13.3,45.4,13,45.5z M34.9,55.6
			c0.1-0.1,0.2-0.2,0.3-0.3c0,0-0.1-0.2-0.1-0.2s-0.3,0-0.3,0.1S34.8,55.4,34.9,55.6z M19.6,12.4c0.1,0,0.2-0.1,0.3-0.1s0-0.2,0-0.3
			l-0.3,0.1L19.6,12.4z M38,86.1l-0.1-0.3L37.6,86c0,0.1,0.1,0.2,0.1,0.3S37.9,86.2,38,86.1z M6.2,34.1L6,34c0,0.1-0.1,0.2-0.1,0.3
			s0.1,0.1,0.2,0.1L6.2,34.1z M36.4,13.8L36,13.5c-0.1,0.1-0.2,0.2-0.2,0.3S36,14,36,14.1L36.4,13.8z M22,65.3
			c0-0.1-0.1-0.2-0.2-0.2s-0.1,0.1-0.2,0.1l0.2,0.3L22,65.3z M33.7,27.2l0.2,0.1c0-0.1,0.1-0.2,0.1-0.3s-0.2-0.1-0.2-0.1L33.7,27.2z
			 M26.2,9.6c0-0.1-0.1-0.2-0.1-0.2s-0.2,0-0.2,0.1s0,0.2,0.1,0.2L26.2,9.6z M25.3,14.3l0.3-0.1c0-0.1,0-0.2-0.1-0.2s-0.2,0-0.3,0.1
			L25.3,14.3z M22.9,12.4c0,0.1-0.1,0.2-0.1,0.2c0,0,0.1,0.1,0.1,0.1c0.1,0,0.1-0.1,0.2-0.1L22.9,12.4z M37.2,84.4
			c0,0,0-0.1-0.1-0.1s-0.1,0-0.1,0L37.2,84.4L37.2,84.4z M33.2,53c0,0,0.1,0,0.1-0.1s0-0.1,0-0.1L33.2,53L33.2,53z M19.4,87
			l-0.1-0.3c-0.1,0-0.2,0.1-0.2,0.1s0.1,0.2,0.1,0.3L19.4,87z M33.4,50c-0.1,0-0.2-0.1-0.3-0.1c-0.1,0.1-0.1,0.1-0.1,0.2
			c0,0.1,0.2,0.1,0.2,0.1L33.4,50z M21.3,73.6l0.2,0.2c0,0,0.1-0.1,0.1-0.1l-0.2-0.2L21.3,73.6z M28.7,15.1c0,0,0,0.1,0.1,0.1
			c0.1,0,0.1,0,0.2-0.1c0,0,0-0.1-0.1-0.1C28.8,15,28.8,15.1,28.7,15.1z M18.5,17.4v0.1V17.4z M32.7,17c0,0,0-0.1,0-0.1
			c0,0-0.1,0-0.1,0v0.2L32.7,17z M33.2,81.3v0.1h0.1L33.2,81.3z M21.4,83.5c0,0-0.1,0-0.1,0s0,0.1,0,0.1h0.2L21.4,83.5z M32.8,83.5
			l-0.1,0.1l0.1,0.1L32.8,83.5z M21.1,87.5c0-0.1,0.1-0.2,0.1-0.2s-0.1-0.1-0.2-0.1s-0.1,0.2-0.1,0.2S21,87.4,21.1,87.5L21.1,87.5z
			 M35.8,1.3c0,0,0-0.1,0-0.1s-0.1,0-0.1,0v0.2L35.8,1.3z M34.5,6.4c0,0,0,0.1,0,0.1s0.1,0.1,0.1,0.1l0.1-0.2L34.5,6.4z M36.1,11.1
			C36.1,11.1,36,11.1,36.1,11.1c-0.1,0-0.1,0.1-0.1,0.1h0.2L36.1,11.1z M14.1,56.9c0,0,0-0.1,0-0.1s-0.1,0-0.1,0V57L14.1,56.9z
			 M34.3,58.9c0,0.1-0.1,0.1-0.1,0.2c0,0,0,0.1,0.1,0.1s0.1,0,0.1-0.1C34.4,59,34.3,58.9,34.3,58.9L34.3,58.9z M10.8,46.7h-0.1
			c0,0,0,0.1,0,0.1s0.1,0,0.1,0L10.8,46.7z M12.1,52.9V53V52.9L12.1,52.9z M34.7,51.9c0,0-0.1-0.1-0.1-0.1c-0.1,0-0.1,0.1-0.2,0.1
			C34.5,51.9,34.6,51.9,34.7,51.9C34.7,52,34.7,51.9,34.7,51.9L34.7,51.9z M34.6,70.5C34.6,70.5,34.5,70.6,34.6,70.5
			c-0.1,0.1-0.1,0.2,0,0.2S34.7,70.6,34.6,70.5C34.7,70.6,34.6,70.5,34.6,70.5z M34,32.5l-0.1-0.1c-0.1,0.1-0.1,0.2-0.1,0.2
			c0,0,0.1,0.1,0.1,0.1L34,32.5z M30.7,75.6l0.1-0.1c-0.1,0-0.1-0.1-0.2-0.1c0,0,0,0.1-0.1,0.1L30.7,75.6z M21.7,75.6v-0.1h-0.1
			L21.7,75.6z M25,74.7c0,0,0-0.1,0-0.1s-0.1,0-0.1,0v0.2L25,74.7z M25.9,64.2l0.1,0.1l0.1-0.1L25.9,64.2z M22.6,67.6h-0.2
			c0,0,0,0.1,0.1,0.1S22.6,67.6,22.6,67.6L22.6,67.6z M33.8,37.6H34v-0.1L33.8,37.6z"/>
		<path d="M22,54.1c-0.1-0.5-0.2-1.1-0.3-1.7c0-2.9,0.1-5.8,0.3-8.7c0,0.1,0.1,0.3,0.1,0.4c0,0.2,0,0.3,0,0.5c0,2-0.1,4-0.1,6
			C22,51.8,22,53,22,54.1L22,54.1z"/>
	</g>
</g>
</svg>
