<?xml version="1.0" encoding="utf-8"?>
<!-- Generator: Adobe Illustrator 23.0.3, SVG Export Plug-In . SVG Version: 6.00 Build 0)  -->
<svg version="1.1" id="Calque_1" xmlns="http://www.w3.org/2000/svg" xmlns:xlink="http://www.w3.org/1999/xlink" x="0px" y="0px"
	 viewBox="0 0 85.9 86.5" style="enable-background:new 0 0 85.9 86.5;" xml:space="preserve">
<title>Caracas</title>
<g>
	<g>
		<path d="M26.9,49.8c-1.7-1.1-3.2-2.3-4.8-3.3c-1.5-1-3.3-1.5-5.1-1.5c-0.6-0.9-0.8-1.9-0.8-2.9c-0.3-3.4-0.6-6.8-0.8-10.2
			c-0.5-5.7,0.2-11.4,2-16.8c0.8-2.7,2.2-5.2,4-7.3c1.6-1.6,2.8-3.5,4.8-4.7c0.7-0.5,1.4-0.9,2.1-1.2c2.8-1.4,6-2,9.2-1.9
			c0.8,0,1.6,0.1,2.4,0.3c2.3,1,4.8,1.6,6.7,3.4c0.5,0.5,1.1,0.9,1.7,1.3c1.9,1.5,3.4,3.5,4.3,5.8c1.7,4.2,1.8,8.9,0.2,13.2
			c-0.7,2.5-1.7,4.9-3,7.2c-0.7,1.1-1.5,2.3-2.2,3.4S45.9,36.9,45,38c-2.5,3-5.9,5-9.1,7.1c-1.9,1.2-3.9,2.4-5.8,3.4
			C29,49,28,49.4,26.9,49.8z M40.5,32.5c0.5-0.1,0.9,0,1-0.2c1.5-1.8,3.2-3.4,4.3-5.5c0.6-1.3,1.3-2.5,2.1-3.7
			c0.8-1.3,1.3-2.8,1.4-4.3c0.2-2.8,0-5.6-0.6-8.3c0-0.1-0.2-0.3-0.5-0.6c-1,0.1-2.2,0.2-3.3,0.4c-0.6,0.2-1.1,0.5-1.6,0.9
			c0.7,2.4,0,4.8,0.8,7c0.1,0.3,0.1,0.5,0,0.8c-0.5,2.6-0.6,5.4-1.6,7.9C41.9,28.7,41.3,30.4,40.5,32.5z M34.4,15.4
			c-0.8,1.4-0.7,1.8,0.3,2.4c0.2,0.1,0.5,0.1,0.7,0c0.2-0.2,0.3-0.4,0.2-0.7C35.3,16.6,34.9,16,34.4,15.4z M30.7,10.9
			c1-0.2,1-0.9,1-1.5c0-0.1-0.2-0.4-0.3-0.4s-0.6,0.2-0.6,0.3C30.6,9.9,30.6,10.4,30.7,10.9z M26.5,36.5L26,36.7c0,0.4,0,0.8,0,1.2
			c0.1,0.4,0.4,0.8,1,0.3L26.5,36.5z M36.5,12.5c-0.1-0.5-0.1-1-0.3-1.1c-0.3-0.1-0.6-0.1-0.9,0.1c-0.1,0.3-0.1,0.6,0.1,0.9
			C35.6,12.6,36,12.5,36.5,12.5L36.5,12.5z M37.1,12.9c-0.4,0.1-0.7,0.1-0.8,0.2s-0.1,0.4-0.1,0.7c0.2,0,0.5,0.1,0.7-0.1
			S37.1,13.3,37.1,12.9L37.1,12.9z M34.5,14.5c-0.3-0.1-0.6-0.3-0.6-0.2c-0.2,0.3-0.4,0.5-0.5,0.8c0.2,0.1,0.5,0.3,0.6,0.2
			C34.1,15.1,34.3,14.8,34.5,14.5L34.5,14.5z M24.5,16.5c0.3-0.1,0.7-0.1,0.7-0.2s0-0.5-0.1-0.7c-0.2,0-0.5,0-0.6,0.1
			S24.5,16.2,24.5,16.5L24.5,16.5z M31.5,11.9c0.1,0.2,0.2,0.4,0.4,0.6c0.1,0.1,0.4-0.1,0.4-0.1c0-0.2,0-0.5-0.1-0.7L31.5,11.9z
			 M29.1,7.3L29,6.9C28.9,7,28.6,7,28.6,7.2s0.1,0.3,0.1,0.4L29.1,7.3z M30.4,24.7l0.2-0.6c-0.2,0-0.4,0-0.7,0
			c-0.1,0-0.1,0.4-0.1,0.4C30,24.6,30.2,24.7,30.4,24.7z M20.6,27.1l-0.4,0.2c0.1,0.1,0.1,0.4,0.3,0.4s0.3-0.1,0.4-0.2L20.6,27.1z
			 M38.7,4.1V3.9h-0.2v0.3L38.7,4.1z M32.8,6L33,6.1l0-0.2L32.8,6z M22.2,16.3c-0.1,0-0.2,0-0.2,0c0,0.1-0.1,0.3-0.1,0.4
			c0.1-0.1,0.3-0.1,0.4-0.2C22.2,16.6,22.2,16.4,22.2,16.3z M22.9,13.3l0.2,0.1L23,13.2L22.9,13.3z M47,7.7
			c-0.1-0.1-0.1-0.3-0.2-0.4c0,0-0.2,0-0.2,0.1s0,0.2,0,0.2C46.7,7.6,46.9,7.7,47,7.7z M20.3,41.7H20c0,0.1,0.1,0.3,0.2,0.4
			c0,0,0.1,0,0.2,0L20.3,41.7z"/>
		<path d="M55,13c0.7-1.3,1.7-2.3,3-3c2.2-1.7,4.9-2.8,7.7-3c1.3-0.2,2.7-0.3,4-0.3c8.4,0.9,15,6.6,16,15.2c0.6,5-0.4,10-3,14.3
			c-0.6,1.1-1.4,2.1-2.3,3c-2.6,2.8-5.5,5.1-8.8,7c-2.7,1.4-5.5,2.6-8.5,3.5c-1.5,0.5-2.9,0.9-4.4,1.4c-2.2,0.7-4.3,1.3-6.5,1.9
			c-0.2,0-0.4,0.1-0.5,0.1c-1,0.3-2.1-0.1-2.5-1.1c-0.8-1.4-1.8-2.7-3-3.8c-0.9-0.8-1.9-1.3-3.1-1.6c-0.9-0.2-1.8-0.4-2.6-0.8
			c-0.6-0.2-1-1-0.7-1.6c0.1-0.2,0.2-0.4,0.4-0.6c1.2-0.8,2.2-1.8,3-3c0.2-0.3,0.5-0.6,0.8-0.8c1.4-0.5,2-1.7,2.9-2.7
			c0.3-0.4,0.6-0.7,0.9-1.1c3.3-3,4.8-7.1,6.5-11c0.5-1.1,0.8-2.2,0.8-3.4c0.1-2.4,0.4-4.9-0.2-7.3C55.1,13.9,55,13.4,55,13z
			 M71.6,40.8c0.5-0.4,0.8-0.6,1.1-0.8c1.5-1.6,2.8-3.3,4-5.1c0.9-1.2,1.7-2.6,2.1-4c0.7-2.2,1.7-4.3,2.2-6.6
			c0.2-0.8,0.3-1.6,0.4-2.4c0.1-0.9-0.4-1.8-1.2-2.2c-1.7-1-3.5-1.5-5.4-1.5c-0.1,0.4-0.1,0.8,0,1.2c0.6,1.7,0.8,3.5,0.7,5.3
			c0.1,1.8,0.1,3.6-0.2,5.3c-0.6,3.4-1.8,6.6-3.6,9.5C71.6,39.8,71.6,40.2,71.6,40.8z M68.5,9.9c-0.4,0.1-0.8,0.1-0.8,0.2
			c0,0.3,0,0.6,0.1,0.9c0,0,0.6,0,0.6-0.1C68.5,10.6,68.5,10.3,68.5,9.9z M79.4,16.1c0-0.2,0.1-0.5,0.1-0.6
			c-0.2-0.1-0.4-0.1-0.7-0.1l-0.1,0.7L79.4,16.1z M64.2,11c0.1,0.2,0.2,0.4,0.3,0.6c0,0,0.4-0.1,0.4-0.2c0-0.2-0.1-0.4-0.2-0.6
			L64.2,11z M55.4,36.5c-0.1,0-0.3-0.1-0.4-0.1s-0.1,0.3-0.1,0.4c0.1,0,0.3,0.2,0.4,0.1S55.4,36.7,55.4,36.5z M60,20.5l0.3,0.2
			c0.2-0.2,0.4-0.5,0.6-0.7c0-0.1,0-0.2,0-0.2c-0.1,0-0.3-0.1-0.4,0C60.3,20,60.1,20.3,60,20.5L60,20.5z M73.2,11.5l-0.3-0.8
			c-0.2,0.1-0.4,0.1-0.5,0.2s-0.1,0.3-0.1,0.5L73.2,11.5z M54.2,48.3l0.1-0.2l-0.3,0l-0.1,0.3L54.2,48.3z M60.2,37.2
			c-0.1,0.1-0.4,0.1-0.4,0.3s0.1,0.3,0.2,0.4c0.2-0.1,0.4-0.2,0.4-0.3S60.3,37.3,60.2,37.2L60.2,37.2z M64.7,20.8l0.2-0.1l-0.1-0.1
			L64.7,20.8z M63.6,22.2c0.1,0.1,0.2,0.2,0.3,0.3c0,0,0.2,0,0.2,0c0-0.1-0.1-0.3-0.2-0.4C63.9,22.1,63.7,22.1,63.6,22.2z
			 M54.9,34.6l0.1-0.2c-0.1,0-0.1-0.1-0.2-0.1c0,0-0.1,0.1-0.1,0.2L54.9,34.6z M58.5,28.4c-0.2,0.1-0.3,0.1-0.4,0.2c0,0,0,0.2,0,0.2
			s0.3,0,0.4,0S58.5,28.5,58.5,28.4L58.5,28.4z M59.3,22.5c-0.1,0-0.2,0-0.2,0s0,0.1-0.1,0.2h0.4L59.3,22.5z M65.8,25.3
			c0,0.1,0,0.2,0,0.2s0.1,0,0.2,0v-0.4L65.8,25.3z M71.8,31.1c-0.1,0-0.2,0-0.2,0s0,0.1,0,0.2s0.2,0,0.2,0S71.7,31.2,71.8,31.1
			L71.8,31.1z M80.8,16.5l-0.1-0.2l-0.1,0.3L80.8,16.5z"/>
		<path d="M16.3,47c2.9,0.2,5.6,1.3,7.7,3.3c0.6,0.5,0.8,1.2,0.6,2c0,0.4-0.2,0.9-0.4,1.3c-1.2,1.4-1.6,3.2-2.8,4.6
			c-1,1.4-1.9,2.8-2.5,4.4c-1.6,3.2-3.6,6.2-5.4,9.3c-1.3,2.2-2.4,4.6-3.6,6.9c-0.2,0.6-0.5,1.1-0.9,1.7c-1,1.1-1.4,2.6-1.2,4
			c0.2,1-0.5,1.9-1.5,2.1c-0.5,0.1-1,0-1.4-0.3c-1.1-0.7-2.2-1.2-3.3-1.7c-0.5-0.3-0.9-0.6-1.2-1.1c-0.5-0.5-0.5-1.3,0-1.8
			c0.1-0.1,0.2-0.2,0.3-0.2c2-0.7,2.7-2.3,3.3-4c0.5-1.4,1.2-2.8,1.9-4.2c1.6-2.8,2.5-5.9,4.2-8.7c0.7-1.3,1.2-2.6,1.6-4
			c1-2.7,2.5-5.2,3-8.1c0.1-0.3,0.1-0.5,0.2-0.8c0.4-0.7,0.7-1.4,1-2.2C16.2,48.6,16.2,47.8,16.3,47z M12.6,68.6
			c-0.1-0.3-0.2-0.5-0.3-0.8c-0.1,0-0.3,0-0.4,0.1c-0.1,0.2-0.1,0.4-0.1,0.7L12.6,68.6z M10.7,71.2c-0.1-0.1-0.3-0.1-0.4-0.1
			c0,0-0.1,0.2-0.1,0.2c0.1,0.1,0.2,0.2,0.3,0.3L10.7,71.2z M14.6,63.7v-0.5c-0.2,0-0.4,0-0.5,0c0,0.2,0,0.4,0,0.6L14.6,63.7z"/>
		<path d="M39.5,47.6c1.3-0.8,2.3-0.2,3.4,0.4c2.6,1.4,4.7,3.2,5.2,6.4c-1.1,1.9-3.1,2.9-4.7,4.3c-2.8,2.7-6,4.9-8.6,7.8
			c-2,2.2-4.1,4.3-6.4,6.2c-0.8,0.7-1.6,1.5-2.2,2.3c-0.4,0.8-0.7,1.7-0.8,2.7c-0.3,0.1-0.8,0.3-1.1,0.2c-1.9-0.6-3.5-1.9-4.6-3.6
			c-0.5-0.8-0.4-1.7,0.5-2.1c2.3-1.1,3.8-3,5.3-4.9c3.4-4.1,6.8-8.4,10.3-12.5c1.5-1.8,2.6-3.9,3.3-6.1
			C39.3,48.3,39.4,47.9,39.5,47.6z M36.1,59.9c0.2,0,0.3,0.1,0.4,0s0.1-0.3,0.2-0.4h-0.6C36.1,59.5,36.1,59.7,36.1,59.9z"/>
	</g>
</g>
<text transform="matrix(1 0 0 1 0 101.5)" style="font-family:'Arial-BoldMT'; font-size:5px;">Created by Carpe Diem</text>
<text transform="matrix(1 0 0 1 0 106.5)" style="font-family:'Arial-BoldMT'; font-size:5px;">from the Noun Project</text>
</svg>
