<?xml version="1.0" encoding="utf-8"?>
<!-- Generator: Adobe Illustrator 23.0.3, SVG Export Plug-In . SVG Version: 6.00 Build 0)  -->
<svg version="1.1" id="Calque_1" xmlns="http://www.w3.org/2000/svg" xmlns:xlink="http://www.w3.org/1999/xlink" x="0px" y="0px"
	 viewBox="0 0 91.2 86.3" style="enable-background:new 0 0 91.2 86.3;" xml:space="preserve">
<title>Saxophone</title>
<g>
	<g>
		<path d="M23.4,43.5c0.2,0.5,0.2,1.2-0.1,1.7c-0.8,1.9-1.2,4-1.2,6c-0.1,1.6-0.4,3.2-0.8,4.8c-0.1,0.3-0.1,0.6-0.1,0.9
			c1,1.2,2.4,1.9,3.9,2c0.4,0,0.7-0.3,1.2-0.5l-0.5-1.6l4.2-7c0.5-0.3,1,0.1,1.6,0.3s0.8,0,0.9-0.4c0.1-0.3,0.1-0.7,0-1
			c-0.3-0.4-0.7-0.8-1.1-1.1c0.3-1.1,0.9-2.2,1.8-3l0.6,0.6c0.8,0.8,1.1,0.7,1.8-0.3c0.1-0.2,0.1-0.3,0.1-0.5
			c-0.4-0.2-0.8-0.4-1.2-0.7c-0.6-0.4-0.8-1.1-0.5-1.7c0.5-1.2,1-2.3,1.5-3.5c1.2-0.3,2.2,0.5,3.3,0.7c0.3-0.2,0.3-0.5,0.1-0.8
			c0-0.1-0.1-0.1-0.1-0.1c-0.6-0.5-1.3-1-2-1.6c0.2-0.8,0.5-1.5,1.1-2.1c1.3-1.8,2.7-3.7,4-5.5c0.5-0.8,0.9-1.6,1.2-2.5
			c0.2-0.5,0.4-0.9,0.5-1.3c0.9-0.1,1.7,0.7,2.5,0.3c-0.6-2.2-0.6-2.2,1.1-4c0.2-0.1,0.3-0.3,0.5-0.5c0.3,0,0.5,0,0.8,0
			c0.7,0.3,1.6-0.1,1.9-0.8c0,0,0-0.1,0-0.1c1.2-2.2,2.5-4.3,4-6.3c0.8-1.1,1.4-2.3,2.3-3.3c1.4-1.5,3-2.8,4.9-3.7
			c1.8-0.9,3.7-1.4,5.5-2.3c0.1-0.1,0.3-0.1,0.4-0.2c1.8-0.1,3.4-0.9,5.2-1.1s3.6-0.6,5.4-1c0.3-0.1,0.7-0.3,1-0.3
			c1.5-0.2,2.9-0.7,4.2-1.5c0.6-0.4,1.3-0.5,2-0.2c1.6,0.8,3.3,0.6,5,0.3l1-0.1c-0.3,0.3-0.4,0.6-0.5,0.6c-0.4,0.3-0.9,0.5-1.3,0.7
			C88,2.3,86.8,3.2,86,4.4c-0.4,0.7-1.2,1.1-2,0.9c-0.1,0-0.3,0-0.4,0c-1.2,0-2.4-0.7-3.8,0c-1.2,0.5-2.4,0.9-3.7,1.1
			c-1.9,0.4-3.4,1.5-5.1,2.2c-2.1,0.8-4.1,1.9-5.9,3.3c-0.6,0.5-1.2,1-1.8,1.5c-1.4,1.6-2.8,3.2-4.2,4.8c-0.2,0.3-0.5,0.6-0.7,0.9
			l0.5,0.7c0.6,0.7,0.7,1,0.1,1.7c-1.9,2.3-3.4,4.8-4.4,7.5c-0.2,0.5-0.5,1-0.9,1.5c-1.5,2.3-2.7,4.7-3.8,7.2
			c-0.2,0.5-0.5,1-0.8,1.5c-0.5,0.6-1,1.2-2,0.8c-0.7-0.3-1.4,0.4-1.1,1c0.9,2-0.1,3.5-1.1,5.2l-1.7-0.5l-1.3,2l0.7,1.1
			c-0.2,0.6-0.4,1.3-0.7,1.9c-0.7,1.8-0.9,2-2.9,2.3c-0.9,0.9-1.3,2.1-1.1,3.3c0.1,0.7-0.2,1.5-0.9,1.8c-0.7,0.4-1.2,1-1.3,1.8
			c-0.3,1-0.7,1.9-1.4,2.6c-0.9,1.4-1.7,2.8-2.5,4.3c-2.2,3.8-4.2,7.6-6.5,11.3c-1.1,1.6-2.4,3.2-3.9,4.5c-0.9,0.8-1.9,1.5-2.9,2.1
			c-0.6,0.3-1.2,0.5-1.8,0.7c-2.2,0.8-4.6,1.1-6.9,0.7c-1.8-0.2-3.5-1-4.9-2.1c-1.7-1.2-3-2.8-4-4.6c-0.2-0.3-0.3-0.6-0.4-1
			c-0.8-2.9-0.9-6-0.2-8.9c0.3-1,0.4-2.1,0.6-3.2c0.5-1.7,1.1-3.4,1.8-5c1-2.4,1.8-5,2.3-7.5c0.5-2.3,0-4.7-1.3-6.8
			c-0.3-0.4-0.5-0.9-0.7-1.3c-0.2-0.7,0.5-1.6,1.2-1.3c1.4,0.5,2.7-0.1,4,0c3.1,0,6.3-0.2,9.4-0.6c1.6-0.2,3.3-0.3,4.9-0.4
			C23,43.3,23.2,43.5,23.4,43.5z M48,30.3l0.3-0.4c0,0-0.2,0-0.2,0C48.1,30.1,48.1,30.2,48,30.3c-0.1,0-0.2,0-0.3,0.1
			c-0.1,0.1-0.2,0.3-0.3,0.4c0.1,0.1,0.2,0.2,0.3,0.2c0.2-0.1,0.3-0.2,0.4-0.4C48,30.6,48,30.4,48,30.3z M20.1,59.9
			c-1,1.8-1.8,3.5-2.7,5c-1.6,2.4-2.5,5.1-3.8,7.6c-0.3,0.7-0.1,1.6,0.6,2.1c0.4,0.3,1,0.2,1.4-0.2c0.3-0.2,0.7-0.5,0.9-0.9
			c1.5-2,3-4,4.5-5.9l-0.4-1.8c0.8-1.6,2.3-2.7,2.1-4.7L20.1,59.9z M33.9,57.2c-0.8,0.3-0.9,0.3-1,1.1c0,0.1,0.2,0.3,0.5,0.5
			C33.6,58.1,34.3,57.9,33.9,57.2L33.9,57.2z M6.2,63.2c0.1-0.3,0.1-0.6,0.1-0.9c0-0.1-0.3-0.1-0.5-0.2c-0.1,0.2-0.2,0.5-0.2,0.7
			C5.6,63,5.9,63,6.2,63.2L6.2,63.2z M40.8,36.3c0-0.3,0-0.6,0-0.9c0-0.1-0.3-0.1-0.5-0.1c-0.1,0.2-0.1,0.5-0.1,0.8
			C40.1,36.2,40.4,36.2,40.8,36.3z M56.3,14.9l0.2,0.3c0.2,0,0.4,0,0.6-0.1c0.2-0.1,0.2-0.3,0.3-0.4c-0.2-0.1-0.4-0.2-0.5-0.1
			C56.7,14.6,56.5,14.7,56.3,14.9z M35.6,54.8l0.1-0.6c-0.2,0-0.4-0.1-0.5-0.1c-0.1,0.1-0.2,0.3-0.1,0.5
			C35.2,54.7,35.4,54.7,35.6,54.8z M45.9,32.5c0.3,0,0.6,0.1,0.9,0.1c0.1,0,0.2-0.3,0.2-0.3c-0.2-0.1-0.4-0.3-0.7-0.3
			C46.2,31.8,46.1,32.1,45.9,32.5z M11.7,64l0.2-0.3l-0.5-0.2L11.3,64L11.7,64z M16.5,58.1c0-0.2,0-0.5,0-0.7c0-0.1-0.3-0.2-0.3-0.2
			s-0.4,0.2-0.4,0.4c0,0.2,0.1,0.4,0.2,0.5C16,58.1,16.2,58.1,16.5,58.1L16.5,58.1z M16.1,77.6c0.1,0.1,0.2,0.2,0.3,0.2
			s0.2-0.1,0.3-0.2l-0.4-0.3L16.1,77.6z M13.1,66.6c0.1-0.1,0.2-0.3,0.1-0.3s-0.2-0.2-0.3-0.2l-0.2,0.5L13.1,66.6z M19.1,54.8v-0.5
			h-0.5c0,0.2,0,0.4,0.1,0.5C18.8,54.8,19,54.8,19.1,54.8L19.1,54.8z M55.5,17.4v-0.2h-0.3c0,0.1,0,0.1,0.1,0.2S55.4,17.4,55.5,17.4
			z M28.6,60.7l0.2-0.4c-0.1-0.1-0.3-0.2-0.4-0.2c-0.1,0-0.1,0.2-0.2,0.3L28.6,60.7z M43.8,36.9c0.1-0.2,0.1-0.3,0.2-0.5
			c0,0-0.2-0.2-0.3-0.2c-0.3,0-0.5,0.4-0.3,0.6S43.6,36.9,43.8,36.9L43.8,36.9z M6.3,66c0.1-0.1,0.2-0.2,0.2-0.3s-0.2-0.2-0.3-0.3
			L6,65.9L6.3,66z M6.2,78.3c-0.1-0.1-0.2-0.2-0.3-0.2s-0.2,0.2-0.2,0.3l0.4,0.2L6.2,78.3z M9.8,84.2c0-0.1,0-0.3-0.1-0.3
			s-0.2,0-0.3,0s0,0.3,0.1,0.4S9.7,84.3,9.8,84.2z M10,78.1c0.1-0.1,0.2-0.2,0.2-0.3s-0.2-0.2-0.3-0.3c-0.1,0.1-0.2,0.2-0.2,0.3
			S9.9,78,10,78.1L10,78.1z M12.4,48.5l0.2-0.3c-0.1,0-0.2-0.1-0.3-0.1c0,0-0.1,0.1-0.1,0.1C12.2,48.3,12.3,48.4,12.4,48.5
			L12.4,48.5z M10.7,52.1c0-0.1,0-0.2,0-0.4c0,0-0.1,0-0.2,0s0,0.3-0.1,0.4L10.7,52.1z M18.8,46.4h-0.2l0.1,0.2
			C18.7,46.6,18.8,46.6,18.8,46.4C18.9,46.5,18.8,46.5,18.8,46.4L18.8,46.4z M33,53.5l0.2-0.3c-0.1,0-0.2-0.1-0.2-0.1
			c-0.1,0.1-0.2,0.2-0.3,0.3L33,53.5z M25.8,66.1c0,0-0.1,0-0.1,0s0,0.1,0,0.2l0.3-0.1L25.8,66.1z M8.3,57.5l0.1-0.1H8.2L8.3,57.5z
			 M9.8,59.6v-0.2c-0.1,0-0.2,0-0.4,0c0,0,0,0.1,0,0.2L9.8,59.6z M20.1,76.5c0,0.1,0,0.1,0,0.2c0,0,0.1,0,0.1,0c0-0.1,0-0.1,0-0.2
			C20.2,76.5,20.2,76.5,20.1,76.5z M21.9,76.5l0.1-0.2c-0.1,0-0.2,0-0.4,0c0,0,0,0.1,0,0.2L21.9,76.5z M10.8,54.7
			C10.8,54.7,10.9,54.7,10.8,54.7c0.1-0.2,0.1-0.2,0-0.3l-0.2,0.2L10.8,54.7z M3.2,79.4c0,0-0.1-0.1-0.1-0.1S3,79.3,2.9,79.4
			s0.1,0.1,0.1,0.1S3.1,79.4,3.2,79.4z M15.7,80.4c0-0.1,0.1-0.1,0.1-0.2s-0.1-0.1-0.1-0.1l-0.1,0.3L15.7,80.4z M10.8,72
			c0,0.1,0,0.2,0,0.3c0,0,0.1,0.1,0.2,0s0.1-0.1,0.1-0.2C11,72.1,10.9,72,10.8,72z M4.5,67.4l-0.3-0.2c0,0.1-0.1,0.2-0.1,0.2
			c0.1,0.1,0.2,0.1,0.3,0.2L4.5,67.4z M52.5,22.3l0.2,0.1l-0.1-0.3L52.5,22.3z"/>
	</g>
</g>
<text transform="matrix(1 0 0 1 0 101.22)" style="font-family:'Arial-BoldMT'; font-size:5px;">Created by Carpe Diem</text>
<text transform="matrix(1 0 0 1 0 106.22)" style="font-family:'Arial-BoldMT'; font-size:5px;">from the Noun Project</text>
</svg>
