<?xml version="1.0" encoding="utf-8"?>
<!-- Generator: Adobe Illustrator 23.0.3, SVG Export Plug-In . SVG Version: 6.00 Build 0)  -->
<svg version="1.1" id="Calque_1" xmlns="http://www.w3.org/2000/svg" xmlns:xlink="http://www.w3.org/1999/xlink" x="0px" y="0px"
	 viewBox="0 0 89 85.8" style="enable-background:new 0 0 89 85.8;" xml:space="preserve">
<title>Violin</title>
<g>
	<g>
		<path d="M28.9,56.4c0.3-0.4,0.6-0.7,0.9-1c2.1-1.9,4-4.1,6-6.2c0.9-0.9,1.8-1.7,2.7-2.6c-0.3-0.7-0.7-1.3-1.1-1.9
			c-1.2-1.3-1.3-2.8-1.6-4.4c-0.1-1.1-0.2-2.1-0.2-3.2c0-0.3,0-0.7,0.1-1c0.9-1.8,1.5-3.8,2.9-5.4c1.3-2.2,3-4.2,5.1-5.8l0.1-0.1
			c1-0.7,1.6-1.7,1.9-2.8c1,0.7,1.9,1.6,2.6,2.6c0.4,0.7,1,1.2,1.7,1.5c1,0.4,2.1,0.4,3.1-0.2c1.8-1,3.4-2.5,4.4-4.3
			c0.8-1.3,0.8-3-0.1-4.3c-0.7-0.9-1.2-1.9-2.5-2.2c-0.2,0-0.3-0.3-0.4-0.4c0.1-0.1,0.2-0.3,0.3-0.3c1.1-0.1,2.1-0.9,2.6-1.9
			c1-2,2.3-3.9,3.8-5.5c0.6-0.7,1.3-1.2,2.1-1.7l1.4-0.9c0.2-0.1,0.4-0.2,0.6-0.3c1-0.3,1.9-0.5,2.9-0.8c1.8-0.4,3.7-0.4,5.6-0.2
			c0.7,0.1,1.3,0.3,1.9,0.6c0.8,0.4,1.6,0.7,2.5,1C79,5.1,79.8,5.5,80.5,6c0.6,0.5,1.4,0.5,1.9-0.1c0,0,0.1-0.1,0.1-0.1
			c1.7-1.6,3.3-3.3,4.9-4.9C87.6,0.6,87.8,0.3,88,0c0.6,0.4,0.7,0.7,0.4,1c-0.6,0.8-1.3,1.6-1.9,2.3s-1.2,1.4-1.7,2
			c-0.1,0.8,0.7,1.3,0.3,2c-0.2,0.5-0.6,1-0.8,1.4c0.8,1.1,1.6,2.2,2.4,3.3c0.6,0.7,1,1.6,1.2,2.6c0.6,1.6,1,3.3,1.1,5.1
			c0.2,1.8-0.6,4.8-1.2,6.6c-0.6,1.3-1.3,2.6-2.3,3.7c-0.8,1.1-1.6,2.3-2.5,3.4c-0.4,0.5-0.9,1.1-1.3,1.5c-0.7,0.5-1.2,1.4-1.1,2.3
			c-0.3,0.2-0.7,0.1-0.9-0.2c-1-1-2.4-1.1-3.7-1.3c-0.3,0-0.7,0-1,0.2c-1.1,0.4-2.2,1-3,1.8c-1,0.9-1.9,1.9-2.7,3
			c-0.7,1.2-1.1,2.6-1.2,4c0,0.4,0.1,0.8,0.3,1.1c0.6,0.8,1.1,1.7,2.3,1.8c0.1,0,0.1,0,0.2,0.1c0.1,0.1,0.3,0.3,0.3,0.4
			s-0.2,0.3-0.3,0.3c-1.5,0.1-2.4,1.1-3.3,2.1c-1.3,1.5-2.7,2.9-4.4,4c-1.4,0.9-2.9,1.5-4.5,1.8c-1.8,0.2-3.7,0.3-5.5,0.1
			c-0.3,0-0.6,0-0.8-0.2c-1.6-0.8-3.4-1.1-5-2c-1.5-0.9-3.3-1.2-5-0.7c-1.4,0.4-2.7,1.1-3.8,2.1c-0.5,0.4-1,0.8-1.5,1.2l-0.9-0.6
			c-0.2,0-0.3,0.1-0.4,0.1c-0.4,0.2-0.7,0.4-1,0.7c-1.5,1.3-3,2.7-4.5,4.1c-0.2,0.2-0.3,0.3-0.5,0.4c-1,0.6-1.9,1.4-2.7,2.3
			c-1.3,1.2-2.6,2.3-3.9,3.4c-0.5,0.4-0.9,1-1.4,1.5c-0.2,0.2-0.5,0.5-0.7,0.7c-0.8,0.7-1.5,1.3-2.4,1.9c-0.6,0.4-0.9,1.2-0.9,1.9
			c0,0.6,0,1.2,0,1.8c0,1-0.5,1.9-1.4,2.3c-0.3,0.1-0.5,0.2-0.7,0.4c-0.2,0.2-0.3,0.4-0.4,0.7l2.4,0.5c1,1.3,0.5,1.8-0.3,2.7
			c-0.4,0.4-0.9,0.7-1.3,1c-0.4,0.3-0.9,0.3-1.3,0.1c-0.4-0.1-0.7-0.5-0.7-1c0-0.2,0-0.3,0.1-0.5c0.3-0.7,0-1.5-0.7-1.8
			c-0.1,0-0.1,0-0.2-0.1c-0.9,0.4-1.9,0.8-2.8,1.3c-0.2,0.2-0.3,0.5-0.1,0.7c0,0,0.1,0.1,0.1,0.1c0.3,0.1,0.6,0.2,0.9,0.3
			c0.3,0,0.6,0.1,0.9,0.3c0.8,0.5,1,1.5,0.6,2.2c-0.1,0.1-0.2,0.3-0.3,0.4c-0.4,0.5-0.9,0.8-1.5,1c-0.6,0.2-1.2-0.1-1.4-0.6
			c-0.4-0.6-0.4-1.4,0-2c-0.5-1-1.7-1.5-2.8-1.1c-0.9,0.2-1.9,0.4-2.8,0.5C2,82.6,0.4,81.4,0,79.7c-0.1-0.7,0.1-1.5,0.7-2
			C1.2,77,2.2,76.7,3,77c0.5,0.1,0.9,0.4,1.2,0.9c0.2,0.4,0.4,0.8,0.6,1.3c0.9-0.1,1.7-0.5,2.4-1.1c-0.5-0.9-0.5-1-1.4-0.8
			c-0.7,0.2-1.4,0-1.8-0.7c-0.1-0.1-0.2-0.3-0.2-0.5c0-0.7,0.4-1.4,0.9-1.9c0.5-0.4,1.1-0.6,1.7-0.5c0.6,0.1,1,0.7,0.9,1.3
			c-0.1,1,0.4,1.4,1.1,1.9c0.8-0.5,1.5-1.2,1.9-2c0.2-0.3,0.1-0.8-0.2-1c-0.1-0.1-0.2-0.1-0.3-0.1c-0.3-0.1-0.7,0-1-0.1
			c-0.7-0.1-1.3-0.7-1.2-1.4c0-0.2,0.1-0.4,0.2-0.6c0.4-0.9,1.1-1.6,2.1-1.8c0.5-0.2,1.1,0.1,1.3,0.6c0.1,0.1,0.1,0.3,0,0.5
			c0,0.5-0.1,1-0.1,1.5c0,0.2,0.1,0.3,0.3,0.4c0.2,0,0.3,0,0.4-0.1c0.3-0.4,0.5-0.7,0.6-1.2c0.1-0.5,0.2-0.9,0.3-1.4
			c1-0.4,1.9-0.9,2.8-1.4c0.8-0.6,1.5-1.3,2.2-2.1c1.8-2,3.9-3.6,5.9-5.4c1.4-1.3,2.7-2.6,4-3.9C28.1,57,28.5,56.7,28.9,56.4
			c0,0.1-0.1,0.2-0.2,0.4c0,0.1,0,0.3,0.1,0.4c0,0,0.1,0,0.1,0c0.1-0.1,0.1-0.3,0.1-0.4C29.1,56.6,29,56.5,28.9,56.4z M80.5,10.6
			c-0.1-0.2,0.3-0.5-0.1-0.8L80.5,10.6c0,0.1,0,0.1,0,0.2c0,0.3,0,0.6,0.3,0.6c0.1,0,0.3-0.1,0.3-0.3c0.1-0.4-0.2-0.4-0.5-0.5
			C80.7,10.6,80.6,10.6,80.5,10.6z M61.3,14.3c-0.3-0.3-0.7-0.6-1-0.9c-0.1-0.1-0.3,0-0.4,0.1s-0.1,0.4-0.1,0.4
			c0.3,0.3,0.7,0.5,1.1,0.7C60.9,14.6,61.2,14.5,61.3,14.3z M69.1,13.4c-0.2,0.4-0.3,0.8-0.4,1.2c0,0.2,0.1,0.4,0.3,0.5
			c0.1,0,0.3-0.1,0.4-0.2c0.1-0.1,0.2-0.3,0.2-0.4C69.5,14.1,69.3,13.8,69.1,13.4L69.1,13.4z M71.6,25.8c-0.2,0.1-0.4,0.2-0.7,0.4
			c0,0,0,0.2,0.1,0.3c0.3,0.1,0.6,0.1,0.7-0.2c0,0,0-0.1,0-0.1C71.8,26.1,71.7,26,71.6,25.8z M62.6,39.3l0.6-0.6
			c-0.1-0.1-0.2-0.3-0.3-0.3s-0.6-0.1-0.6,0.3C62.3,38.8,62.5,39,62.6,39.3L62.6,39.3z M53.2,32.1c-0.2-0.3-0.4-0.6-0.5-0.6
			s-0.4,0.2-0.5,0.3s0.1,0.3,0.2,0.4C52.7,32.3,53,32.2,53.2,32.1L53.2,32.1z M70.4,22.8c-0.1-0.2-0.2-0.4-0.3-0.6
			c-0.1-0.1-0.3-0.1-0.3-0.1s-0.3,0.3-0.2,0.4c0.1,0.2,0.2,0.4,0.4,0.5C70,23,70.2,22.9,70.4,22.8L70.4,22.8z M84.1,7.6
			c-0.2-0.2-0.3-0.4-0.4-0.4c-0.2,0-0.4,0.1-0.5,0.3c0,0,0.1,0.3,0.1,0.4L84.1,7.6z M77.6,29.4c0.2-0.1,0.4-0.3,0.4-0.3
			c-0.1-0.2-0.2-0.3-0.3-0.5c-0.1,0.1-0.3,0.2-0.3,0.3S77.5,29.2,77.6,29.4z M66.2,7.5c0.2-0.2,0.4-0.2,0.5-0.4
			c0.1-0.1,0.1-0.3-0.1-0.4c-0.1,0-0.1-0.1-0.2,0c-0.2,0-0.4,0.2-0.5,0.3C66,7.1,66.1,7.2,66.2,7.5z M82.8,12.1l0.8-0.1
			c0,0,0-0.1,0-0.2s-0.1-0.1-0.1-0.1C83.4,11.6,83.1,11.6,82.8,12.1z M85.6,16.2c-0.1,0.2-0.3,0.3-0.3,0.4s0.2,0.2,0.2,0.4
			c0.1-0.1,0.3-0.2,0.3-0.3S85.7,16.4,85.6,16.2z M71.7,5.9c-0.1-0.2-0.3-0.4-0.4-0.5c0,0-0.2,0-0.3,0.1c0,0.2,0.1,0.4,0.2,0.5
			C71.2,5.9,71.4,5.9,71.7,5.9z M47,39.8c-0.3-0.2-0.3-0.4-0.5-0.4s-0.2,0.2-0.3,0.2c0.1,0.1,0.2,0.3,0.3,0.3S46.7,39.9,47,39.8z
			 M49.6,41.7c-0.1-0.1-0.2-0.2-0.2-0.2c-0.1,0.1-0.2,0.2-0.3,0.3c0.1,0.1,0.2,0.2,0.2,0.2C49.3,41.9,49.4,41.8,49.6,41.7L49.6,41.7
			z M57,43.7c-0.2-0.2-0.3-0.4-0.4-0.4c-0.1,0-0.3,0.1-0.4,0.2c0,0.1,0,0.3,0.1,0.4C56.6,43.8,56.8,43.8,57,43.7L57,43.7z M81.9,31
			l-0.1-0.3c-0.1,0.1-0.3,0.2-0.4,0.3c0,0,0.1,0.2,0.1,0.3L81.9,31z M63.9,47.3c-0.1,0.1-0.1,0.3-0.1,0.4c0,0,0.2,0.1,0.2,0.2
			c0.1-0.1,0.1-0.3,0.2-0.4C64.2,47.5,64,47.4,63.9,47.3z M71.3,29l0.3,0.3c0.1-0.1,0.2-0.2,0.2-0.3c-0.1-0.1-0.2-0.2-0.3-0.3
			L71.3,29z M75,31.6c-0.1,0-0.2-0.1-0.2-0.1s-0.2,0.1-0.2,0.2s0.1,0.1,0.2,0.2L75,31.6z M59.4,28.5c-0.1-0.1-0.1-0.2-0.2-0.2
			s-0.2,0.1-0.3,0.2l0.3,0.3L59.4,28.5z M54.9,32.4c0,0,0-0.1,0-0.1c-0.1,0-0.2-0.1-0.2-0.1c0,0,0,0.1,0,0.1
			C54.8,32.3,54.9,32.4,54.9,32.4z M50.2,29.6c-0.1-0.2-0.2-0.4-0.3-0.4s-0.2,0.1-0.3,0.1c0.1,0.1,0.1,0.3,0.2,0.4
			S50,29.6,50.2,29.6L50.2,29.6z M48.7,28.9v-0.3c-0.1,0-0.3,0-0.3,0.1s0,0.2,0,0.3L48.7,28.9z M78.3,7.7l0.3-0.1
			c0-0.1-0.1-0.2-0.2-0.3c0,0-0.2,0-0.3,0L78.3,7.7z M54.6,44.7c-0.1-0.2-0.1-0.3-0.1-0.3c-0.1,0-0.3,0.1-0.4,0.1
			c0,0.1,0.1,0.3,0.1,0.3C54.3,44.7,54.4,44.7,54.6,44.7L54.6,44.7z M37.3,42.4c-0.1,0-0.2,0.1-0.2,0.1c0,0,0,0.1,0.1,0.1
			c0.1,0,0.2,0,0.3,0L37.3,42.4z M79.4,17.2c0.1-0.1,0.2-0.1,0.2-0.2c0-0.2,0-0.4,0-0.6c-0.1,0-0.2,0-0.3,0.1c0,0.2-0.1,0.4-0.1,0.6
			C79.3,17.1,79.3,17.1,79.4,17.2L79.4,17.2z M76.4,13.4c0.1,0,0.2,0,0.3-0.1s0-0.2,0-0.3h-0.4L76.4,13.4z M62.1,19.2
			c-0.2,0-0.3,0-0.3,0.1c0,0.2,0,0.3,0,0.5c0.1,0,0.3,0,0.3-0.1C62.1,19.5,62.2,19.4,62.1,19.2L62.1,19.2z M62.3,40.8
			c-0.1,0-0.3,0-0.3,0.1s0,0.2,0,0.3l0.3-0.1L62.3,40.8z M83.3,25.6c0-0.1,0-0.2-0.1-0.3s-0.2,0-0.3,0.1l0.2,0.4L83.3,25.6z
			 M55,47.6v-0.1h-0.2c0,0,0,0.1,0,0.1S55,47.6,55,47.6z M61.1,49.1l-0.2,0.2c0.1,0,0.2,0.1,0.2,0.1s0.2-0.2,0.1-0.2
			S61.2,49.2,61.1,49.1L61.1,49.1z M45.7,46.2h-0.1c0,0.1,0,0.2,0,0.3h0.1L45.7,46.2z M46.7,51.5c0-0.1,0-0.2-0.1-0.2s-0.2,0-0.3,0
			c0,0.1,0.1,0.2,0.2,0.3C46.5,51.6,46.6,51.5,46.7,51.5L46.7,51.5z M42,51.3c0-0.1-0.1-0.1-0.2-0.2c0,0-0.1,0.1-0.1,0.1
			c0,0.1,0,0.2,0.1,0.3L42,51.3z M75.7,9c-0.1-0.1-0.2-0.2-0.2-0.1S75.3,9,75.3,9.1l0.3,0.2L75.7,9z M52.9,54.3
			c-0.1-0.1-0.1-0.1-0.2-0.2c0,0-0.1,0.1-0.1,0.1c0,0.1,0,0.2,0.1,0.3L52.9,54.3z M64.2,32.1c0-0.1,0.1-0.2,0-0.3s-0.1-0.1-0.2-0.1
			l-0.1,0.4L64.2,32.1z M59.7,53.8l-0.1,0.1c0,0,0.1,0.1,0.1,0S59.8,53.9,59.7,53.8L59.7,53.8z M80.1,24c0,0,0-0.1,0-0.1
			s-0.1,0-0.1,0L80.1,24L80.1,24z M77.4,21.3c0,0-0.1-0.1-0.1-0.1c-0.1,0-0.2,0-0.3,0.1c0.1,0.1,0.2,0.1,0.2,0.2
			C77.2,21.4,77.3,21.3,77.4,21.3z M60.3,25.7c0.1-0.1,0.2-0.1,0.2-0.2s-0.1-0.1-0.2-0.2s-0.2,0.1-0.2,0.2S60.2,25.6,60.3,25.7z
			 M52.6,36.7L52.5,37c0,0,0.1,0,0.1-0.1S52.6,36.8,52.6,36.7z M67.1,29.9L67,29.7c0,0-0.1,0-0.1,0.1c0,0.1,0,0.2,0.1,0.3L67.1,29.9
			z M60.2,31.8l-0.1-0.1L60.2,31.8L60.2,31.8z M61.6,32.4c0,0-0.1,0-0.1,0s0,0.1-0.1,0.1h0.2L61.6,32.4z M40.7,44l-0.1-0.1
			c0,0-0.1,0.1-0.1,0.1s0.1,0.1,0.1,0.1L40.7,44z M61.1,48c0,0,0-0.1,0-0.1s-0.1,0-0.1,0L61.1,48L61.1,48z M46.3,42
			c-0.1-0.1-0.2-0.1-0.3-0.2c0,0-0.1,0.1-0.1,0.1s0.1,0.2,0.2,0.2S46.2,42.1,46.3,42z M48.9,37.3l-0.1-0.1l-0.1,0.1
			c0,0,0.1,0,0.1,0.1C48.8,37.4,48.9,37.4,48.9,37.3L48.9,37.3z M39.8,36.6L39.8,36.6v-0.1V36.6z M61.9,41.8L61.9,41.8
			C61.9,41.9,62,41.9,61.9,41.8C62,41.8,62,41.8,61.9,41.8C62,41.8,62,41.8,61.9,41.8L61.9,41.8z M86.6,19.4v-0.1h-0.1
			C86.5,19.3,86.5,19.4,86.6,19.4L86.6,19.4z"/>
		<path d="M42.5,14.2c0.1-0.3,0.2-0.5,0.4-0.7c0.8-0.8,1.6-1.6,2.4-2.4c0.3-0.3,0.8-0.1,0.9,0.4c0,0.3,0.1,0.6,0,0.8
			c-0.1,0.3-0.1,0.7-0.1,1c0.3,1.4-0.3,2.4-1.1,3.4c-1.3,1.8-2.6,3.5-3.9,5.3c-2.9,4-5.7,8.1-8.6,12.1C27,42,21.5,49.8,15.9,57.7
			c-1.4,2-2.8,4-4.1,6c-0.4,0.7-0.8,1.4-1.2,2c-0.1,0.2-0.2,0.4-0.4,0.6c-0.3,0.3-0.7,0.3-1.1,0.1c-0.5-0.6-0.9-1.3-1.3-2
			c-0.3-0.5,0-0.9,0.3-1.2c0.9-1.2,1.8-2.5,2.6-3.7c2.3-3.3,4.7-6.5,7-9.8c1.4-1.9,2.8-3.8,4.2-5.8c1.8-2.6,3.7-5.1,5.5-7.7
			c2-2.8,4-5.6,6-8.4c2-2.8,4-5.6,6-8.4c0.9-1.3,1.8-2.7,2.7-4.1c0.2-0.3,0.3-0.7,0.5-1L42.5,14.2z M43.2,17.7
			c-0.1-0.1-0.1-0.3-0.2-0.3s-0.4-0.1-0.5,0c-0.4,0.5-0.8,0.9-1.2,1.4c-2.3,3.2-4.6,6.5-6.8,9.7c-3.7,5.2-7.4,10.5-11.2,15.7
			L18.5,51l-3.9,5.5l-4.2,5.9c-0.1,0.1-0.2,0.3-0.3,0.4c-0.1,0.3-0.1,0.6,0.2,0.7c0.2,0.1,0.4,0,0.6-0.1c0.3-0.4,0.6-0.8,0.9-1.2
			c4.5-6.4,9.1-12.8,13.6-19.2c2.7-3.7,5.3-7.5,7.9-11.2L43,18.2C43.1,18,43.1,17.9,43.2,17.7z"/>
	</g>
</g>
<text transform="matrix(1 0 0 1 0 100.8)" style="font-family:'Arial-BoldMT'; font-size:5px;">Created by Carpe Diem</text>
<text transform="matrix(1 0 0 1 0 105.8)" style="font-family:'Arial-BoldMT'; font-size:5px;">from the Noun Project</text>
</svg>
